<svg fill="none" height="37" viewBox="0 0 1164 37" width="1164" xmlns="http://www.w3.org/2000/svg" xmlns:xlink="http://www.w3.org/1999/xlink"><mask id="a" fill="#fff"><path d="m97 3h97v31h-97z" fill="#fff"/></mask><mask id="b" fill="#fff"><path d="m194 3h97v31h-97z" fill="#fff"/></mask><mask id="c" fill="#fff"><path d="m291 3h97v31h-97z" fill="#fff"/></mask><mask id="d" fill="#fff"><path d="m388 3h97v31h-97z" fill="#fff"/></mask><mask id="e" fill="#fff"><path d="m485 3h97v31h-97z" fill="#fff"/></mask><mask id="f" fill="#fff"><path d="m582 3h97v31h-97z" fill="#fff"/></mask><mask id="g" fill="#fff"><path d="m679 3h97v31h-97z" fill="#fff"/></mask><mask id="h" fill="#fff"><path d="m776 3h97v31h-97z" fill="#fff"/></mask><mask id="i" fill="#fff"><path d="m873 3h97v31h-97z" fill="#fff"/></mask><mask id="j" fill="#fff"><path d="m970 3h97v31h-97z" fill="#fff"/></mask><mask id="k" fill="#fff"><path d="m1067 3h97v31h-97z" fill="#fff"/></mask><mask id="l" fill="#fff"><path d="m0 3h97v31h-97z" fill="#fff"/></mask><path d="m97 1h97v35h-97z" fill="#ffa732" fill-opacity=".89"/><path d="m97 36.5h1.0104v-1h-1.0104zm3.031 0h2.021v-1h-2.021zm4.042 0h2.021v-1h-2.021zm4.042 0h2.02v-1h-2.02zm4.041 0h2.021v-1h-2.021zm4.042 0h2.021v-1h-2.021zm4.042 0h2.02v-1h-2.02zm4.041 0h2.021v-1h-2.021zm4.042 0h2.021v-1h-2.021zm4.042 0h2.02v-1h-2.02zm4.041 0h2.021v-1h-2.021zm4.042 0h2.021v-1h-2.021zm4.042 0h2.02v-1h-2.02zm4.041 0h2.021v-1h-2.021zm4.042 0h2.021v-1h-2.021zm4.042 0h2.02v-1h-2.02zm4.041 0h2.021v-1h-2.021zm4.042 0h2.021v-1h-2.021zm4.042 0h2.02v-1h-2.02zm4.041 0h2.021v-1h-2.021zm4.042 0h2.021v-1h-2.021zm4.042 0h2.02v-1h-2.02zm4.041 0h2.021v-1h-2.021zm4.042 0h2.021v-1h-2.021zm4.042 0h1.01v-1h-1.01zm1.01-36h-1.01v1h1.01zm-3.031 0h-2.021v1h2.021zm-4.042 0h-2.021v1h2.021zm-4.042 0h-2.02v1h2.02zm-4.041 0h-2.021v1h2.021zm-4.042 0h-2.021v1h2.021zm-4.042 0h-2.02v1h2.02zm-4.041 0h-2.021v1h2.021zm-4.042 0h-2.021v1h2.021zm-4.042 0h-2.02v1h2.02zm-4.041 0h-2.021v1h2.021zm-4.042 0h-2.021v1h2.021zm-4.042 0h-2.02v1h2.02zm-4.041 0h-2.021v1h2.021zm-4.042 0h-2.021v1h2.021zm-4.042 0h-2.02v1h2.02zm-4.041 0h-2.021v1h2.021zm-4.042 0h-2.021v1h2.021zm-4.042 0h-2.02v1h2.02zm-4.041 0h-2.021v1h2.021zm-4.042 0h-2.021v1h2.021zm-4.042 0h-2.02v1h2.02zm-4.041 0h-2.021v1h2.021zm-4.042 0h-2.021v1h2.021zm-4.0416 0h-1.0104v1h1.0104z" fill="#000"/><g fill="#45ffca" stroke="#000" stroke-width=".5"><path d="m101.738 3.92275-.238-.73177-.238.73177-.28.86372h-.909-.769l.6225.45226.7345.53381-.28.86373-.238.73176.622-.45225.735-.53381.735.53381.622.45225-.238-.73176-.28-.86373.735-.53381.622-.45226h-.769-.909z"/><path d="m166.738 8.92275-.238-.73177-.238.73177-.28.86372h-.909-.769l.622.45223.735.5338-.28.8638-.238.7317.622-.4522.735-.5338.735.5338.622.4522-.238-.7317-.28-.8638.735-.5338.622-.45223h-.769-.909z"/><path d="m173.738 25.9227-.238-.7317-.238.7317-.28.8638h-.909-.769l.622.4522.735.5338-.28.8638-.238.7317.622-.4522.735-.5338.735.5338.622.4522-.238-.7317-.28-.8638.735-.5338.622-.4522h-.769-.909z"/><path d="m186.738 6.92275-.238-.73177-.238.73177-.28.86372h-.909-.769l.622.45226.735.53381-.28.86373-.238.73173.622-.45222.735-.53381.735.53381.622.45222-.238-.73173-.28-.86373.735-.53381.622-.45226h-.769-.909z"/><path d="m150.738 28.9227-.238-.7317-.238.7317-.28.8638h-.909-.769l.622.4522.735.5338-.28.8638-.238.7317.622-.4522.735-.5338.735.5338.622.4522-.238-.7317-.28-.8638.735-.5338.622-.4522h-.769-.909z"/><path d="m140.738 5.92275-.238-.73177-.238.73177-.28.86372h-.909-.769l.622.45226.735.53381-.28.86373-.238.73176.622-.45225.735-.53381.735.53381.622.45225-.238-.73176-.28-.86373.735-.53381.622-.45226h-.769-.909z"/><path d="m126.738 26.9227-.238-.7317-.238.7317-.28.8638h-.909-.769l.622.4522.735.5338-.28.8638-.238.7317.622-.4522.735-.5338.735.5338.622.4522-.238-.7317-.28-.8638.735-.5338.622-.4522h-.769-.909z"/><path d="m115.738 8.92275-.238-.73177-.238.73177-.28.86372h-.909-.769l.622.45223.735.5338-.28.8638-.238.7317.622-.4522.735-.5338.735.5338.622.4522-.238-.7317-.28-.8638.735-.5338.622-.45223h-.769-.909z"/><path d="m101.738 29.9227-.238-.7317-.238.7317-.28.8638h-.909-.769l.6225.4522.7345.5338-.28.8638-.238.7317.622-.4522.735-.5338.735.5338.622.4522-.238-.7317-.28-.8638.735-.5338.622-.4522h-.769-.909z"/></g><path d="m106.026 17.218h-2.548v5.782h-1.358v-7h1.022l.336.574.994-.574h1.554zm7.065 4.564v1.218h-3.906l-1.624-.938v-5.194l1.624-.938h2.282l1.624.938v3.108h-4.172v1.806zm-4.172-4.634v1.61h2.814v-1.61zm10.874 5.922h-2.114l-.994-.574v3.304h-1.358v-9.87h1.022l.336.574.994-.574h2.114l1.624.938v5.264zm-3.108-5.922v4.704h3.374v-4.704zm12.498 4.634v1.218h-3.906l-1.624-.938v-5.194l1.624-.938h2.282l1.624.938v3.108h-4.172v1.806zm-4.172-4.634v1.61h2.814v-1.61zm7.486 2.982v1.722h2.814v-1.722zm.266 2.94-1.624-.938v-2.282l1.624-.938h2.548v-1.694h-3.472v-1.218h3.206l1.624.938v6.132h-.364l-.994-.574-.994.574zm5.588-5.852v-1.218h1.288v-1.176l1.358-.784v1.96h1.68v1.218h-1.68v4.564h1.68v1.218h-1.414l-1.624-.938v-4.844zm11.819 4.564v1.218h-3.906l-1.624-.938v-5.194l1.624-.938h2.282l1.624.938v3.108h-4.172v1.806zm-4.172-4.634v1.61h2.814v-1.61zm8.031-1.218h2.114l.994.574v-3.724h1.358v10.29h-1.022l-.336-.574-.994.574h-2.114l-1.624-.938v-5.264zm3.108 5.922v-4.704h-3.374v4.704zm6.671-4.634v-1.218h1.288v-1.176l1.358-.784v1.96h1.68v1.218h-1.68v4.564h1.68v1.218h-1.414l-1.624-.938v-4.844zm11.819 4.564v1.218h-3.906l-1.624-.938v-5.194l1.624-.938h2.282l1.624.938v3.108h-4.172v1.806zm-4.172-4.634v1.61h2.814v-1.61zm5.567 5.852 2.506-3.57-2.422-3.43h1.512l1.624 2.408 1.624-2.408h1.512l-2.436 3.43 2.52 3.57h-1.47l-1.75-2.562-1.75 2.562zm7.28-5.782v-1.218h1.288v-1.176l1.358-.784v1.96h1.68v1.218h-1.68v4.564h1.68v1.218h-1.414l-1.624-.938v-4.844z" fill="#000"/><path d="m188.738 27.9227-.238-.7317-.238.7317-.28.8638h-.909-.769l.622.4522.735.5338-.28.8638-.238.7317.622-.4522.735-.5338.735.5338.622.4522-.238-.7317-.28-.8638.735-.5338.622-.4522h-.769-.909z" fill="#45ffca" stroke="#000" stroke-width=".5"/><path d="m193.5 3v31h1v-31zm-96 31v-31h-1v31z" fill="#000" mask="url(#a)"/><path d="m194 1h97v35h-97z" fill="#ffa732" fill-opacity=".89"/><path d="m194 36.5h1.01v-1h-1.01zm3.031 0h2.021v-1h-2.021zm4.042 0h2.021v-1h-2.021zm4.042 0h2.02v-1h-2.02zm4.041 0h2.021v-1h-2.021zm4.042 0h2.021v-1h-2.021zm4.042 0h2.02v-1h-2.02zm4.041 0h2.021v-1h-2.021zm4.042 0h2.021v-1h-2.021zm4.042 0h2.02v-1h-2.02zm4.041 0h2.021v-1h-2.021zm4.042 0h2.021v-1h-2.021zm4.042 0h2.02v-1h-2.02zm4.041 0h2.021v-1h-2.021zm4.042 0h2.021v-1h-2.021zm4.042 0h2.02v-1h-2.02zm4.041 0h2.021v-1h-2.021zm4.042 0h2.021v-1h-2.021zm4.042 0h2.02v-1h-2.02zm4.041 0h2.021v-1h-2.021zm4.042 0h2.021v-1h-2.021zm4.042 0h2.02v-1h-2.02zm4.041 0h2.021v-1h-2.021zm4.042 0h2.021v-1h-2.021zm4.042 0h1.01v-1h-1.01zm1.01-36h-1.01v1h1.01zm-3.031 0h-2.021v1h2.021zm-4.042 0h-2.021v1h2.021zm-4.042 0h-2.02v1h2.02zm-4.041 0h-2.021v1h2.021zm-4.042 0h-2.021v1h2.021zm-4.042 0h-2.02v1h2.02zm-4.041 0h-2.021v1h2.021zm-4.042 0h-2.021v1h2.021zm-4.042 0h-2.02v1h2.02zm-4.041 0h-2.021v1h2.021zm-4.042 0h-2.021v1h2.021zm-4.042 0h-2.02v1h2.02zm-4.041 0h-2.021v1h2.021zm-4.042 0h-2.021v1h2.021zm-4.042 0h-2.02v1h2.02zm-4.041 0h-2.021v1h2.021zm-4.042 0h-2.021v1h2.021zm-4.042 0h-2.02v1h2.02zm-4.041 0h-2.021v1h2.021zm-4.042 0h-2.021v1h2.021zm-4.042 0h-2.02v1h2.02zm-4.041 0h-2.021v1h2.021zm-4.042 0h-2.021v1h2.021zm-4.042 0h-1.01v1h1.01z" fill="#000"/><path d="m198.738 3.92275-.238-.73177-.238.73177-.28.86372h-.909-.769l.622.45226.735.53381-.28.86373-.238.73176.622-.45225.735-.53381.735.53381.622.45225-.238-.73176-.28-.86373.735-.53381.622-.45226h-.769-.909z" fill="#45ffca" stroke="#000" stroke-width=".5"/><path d="m263.738 8.92275-.238-.73177-.238.73177-.28.86372h-.909-.769l.622.45223.735.5338-.28.8638-.238.7317.622-.4522.735-.5338.735.5338.622.4522-.238-.7317-.28-.8638.735-.5338.622-.45223h-.769-.909z" fill="#45ffca" stroke="#000" stroke-width=".5"/><path d="m270.738 25.9227-.238-.7317-.238.7317-.28.8638h-.909-.769l.622.4522.735.5338-.28.8638-.238.7317.622-.4522.735-.5338.735.5338.622.4522-.238-.7317-.28-.8638.735-.5338.622-.4522h-.769-.909z" fill="#45ffca" stroke="#000" stroke-width=".5"/><path d="m283.738 6.92275-.238-.73177-.238.73177-.28.86372h-.909-.769l.622.45226.735.53381-.28.86373-.238.73173.622-.45222.735-.53381.735.53381.622.45222-.238-.73173-.28-.86373.735-.53381.622-.45226h-.769-.909z" fill="#45ffca" stroke="#000" stroke-width=".5"/><path d="m247.738 28.9227-.238-.7317-.238.7317-.28.8638h-.909-.769l.622.4522.735.5338-.28.8638-.238.7317.622-.4522.735-.5338.735.5338.622.4522-.238-.7317-.28-.8638.735-.5338.622-.4522h-.769-.909z" fill="#45ffca" stroke="#000" stroke-width=".5"/><path d="m237.738 5.92275-.238-.73177-.238.73177-.28.86372h-.909-.769l.622.45226.735.53381-.28.86373-.238.73176.622-.45225.735-.53381.735.53381.622.45225-.238-.73176-.28-.86373.735-.53381.622-.45226h-.769-.909z" fill="#45ffca" stroke="#000" stroke-width=".5"/><path d="m223.738 26.9227-.238-.7317-.238.7317-.28.8638h-.909-.769l.622.4522.735.5338-.28.8638-.238.7317.622-.4522.735-.5338.735.5338.622.4522-.238-.7317-.28-.8638.735-.5338.622-.4522h-.769-.909z" fill="#45ffca" stroke="#000" stroke-width=".5"/><path d="m212.738 8.92275-.238-.73177-.238.73177-.28.86372h-.909-.769l.622.45223.735.5338-.28.8638-.238.7317.622-.4522.735-.5338.735.5338.622.4522-.238-.7317-.28-.8638.735-.5338.622-.45223h-.769-.909z" fill="#45ffca" stroke="#000" stroke-width=".5"/><path d="m198.738 29.9227-.238-.7317-.238.7317-.28.8638h-.909-.769l.622.4522.735.5338-.28.8638-.238.7317.622-.4522.735-.5338.735.5338.622.4522-.238-.7317-.28-.8638.735-.5338.622-.4522h-.769-.909z" fill="#45ffca" stroke="#000" stroke-width=".5"/><path d="m203.026 17.218h-2.548v5.782h-1.358v-7h1.022l.336.574.994-.574h1.554zm7.065 4.564v1.218h-3.906l-1.624-.938v-5.194l1.624-.938h2.282l1.624.938v3.108h-4.172v1.806zm-4.172-4.634v1.61h2.814v-1.61zm10.874 5.922h-2.114l-.994-.574v3.304h-1.358v-9.87h1.022l.336.574.994-.574h2.114l1.624.938v5.264zm-3.108-5.922v4.704h3.374v-4.704zm12.498 4.634v1.218h-3.906l-1.624-.938v-5.194l1.624-.938h2.282l1.624.938v3.108h-4.172v1.806zm-4.172-4.634v1.61h2.814v-1.61zm7.486 2.982v1.722h2.814v-1.722zm.266 2.94-1.624-.938v-2.282l1.624-.938h2.548v-1.694h-3.472v-1.218h3.206l1.624.938v6.132h-.364l-.994-.574-.994.574zm5.588-5.852v-1.218h1.288v-1.176l1.358-.784v1.96h1.68v1.218h-1.68v4.564h1.68v1.218h-1.414l-1.624-.938v-4.844zm11.819 4.564v1.218h-3.906l-1.624-.938v-5.194l1.624-.938h2.282l1.624.938v3.108h-4.172v1.806zm-4.172-4.634v1.61h2.814v-1.61zm8.031-1.218h2.114l.994.574v-3.724h1.358v10.29h-1.022l-.336-.574-.994.574h-2.114l-1.624-.938v-5.264zm3.108 5.922v-4.704h-3.374v4.704zm6.671-4.634v-1.218h1.288v-1.176l1.358-.784v1.96h1.68v1.218h-1.68v4.564h1.68v1.218h-1.414l-1.624-.938v-4.844zm11.819 4.564v1.218h-3.906l-1.624-.938v-5.194l1.624-.938h2.282l1.624.938v3.108h-4.172v1.806zm-4.172-4.634v1.61h2.814v-1.61zm5.567 5.852 2.506-3.57-2.422-3.43h1.512l1.624 2.408 1.624-2.408h1.512l-2.436 3.43 2.52 3.57h-1.47l-1.75-2.562-1.75 2.562zm7.28-5.782v-1.218h1.288v-1.176l1.358-.784v1.96h1.68v1.218h-1.68v4.564h1.68v1.218h-1.414l-1.624-.938v-4.844z" fill="#000"/><path d="m285.738 27.9227-.238-.7317-.238.7317-.28.8638h-.909-.769l.622.4522.735.5338-.28.8638-.238.7317.622-.4522.735-.5338.735.5338.622.4522-.238-.7317-.28-.8638.735-.5338.622-.4522h-.769-.909z" fill="#45ffca" stroke="#000" stroke-width=".5"/><path d="m290.5 3v31h1v-31zm-96 31v-31h-1v31z" fill="#000" mask="url(#b)"/><path d="m291 1h97v35h-97z" fill="#ffa732" fill-opacity=".89"/><path d="m291 36.5h1.01v-1h-1.01zm3.031 0h2.021v-1h-2.021zm4.042 0h2.021v-1h-2.021zm4.042 0h2.02v-1h-2.02zm4.041 0h2.021v-1h-2.021zm4.042 0h2.021v-1h-2.021zm4.042 0h2.02v-1h-2.02zm4.041 0h2.021v-1h-2.021zm4.042 0h2.021v-1h-2.021zm4.042 0h2.02v-1h-2.02zm4.041 0h2.021v-1h-2.021zm4.042 0h2.021v-1h-2.021zm4.042 0h2.02v-1h-2.02zm4.041 0h2.021v-1h-2.021zm4.042 0h2.021v-1h-2.021zm4.042 0h2.02v-1h-2.02zm4.041 0h2.021v-1h-2.021zm4.042 0h2.021v-1h-2.021zm4.042 0h2.02v-1h-2.02zm4.041 0h2.021v-1h-2.021zm4.042 0h2.021v-1h-2.021zm4.042 0h2.02v-1h-2.02zm4.041 0h2.021v-1h-2.021zm4.042 0h2.021v-1h-2.021zm4.042 0h1.01v-1h-1.01zm1.01-36h-1.01v1h1.01zm-3.031 0h-2.021v1h2.021zm-4.042 0h-2.021v1h2.021zm-4.042 0h-2.02v1h2.02zm-4.041 0h-2.021v1h2.021zm-4.042 0h-2.021v1h2.021zm-4.042 0h-2.02v1h2.02zm-4.041 0h-2.021v1h2.021zm-4.042 0h-2.021v1h2.021zm-4.042 0h-2.02v1h2.02zm-4.041 0h-2.021v1h2.021zm-4.042 0h-2.021v1h2.021zm-4.042 0h-2.02v1h2.02zm-4.041 0h-2.021v1h2.021zm-4.042 0h-2.021v1h2.021zm-4.042 0h-2.02v1h2.02zm-4.041 0h-2.021v1h2.021zm-4.042 0h-2.021v1h2.021zm-4.042 0h-2.02v1h2.02zm-4.041 0h-2.021v1h2.021zm-4.042 0h-2.021v1h2.021zm-4.042 0h-2.02v1h2.02zm-4.041 0h-2.021v1h2.021zm-4.042 0h-2.021v1h2.021zm-4.042 0h-1.01v1h1.01z" fill="#000"/><path d="m295.738 3.92275-.238-.73177-.238.73177-.28.86372h-.909-.769l.622.45226.735.53381-.28.86373-.238.73176.622-.45225.735-.53381.735.53381.622.45225-.238-.73176-.28-.86373.735-.53381.622-.45226h-.769-.909z" fill="#45ffca" stroke="#000" stroke-width=".5"/><path d="m360.738 8.92275-.238-.73177-.238.73177-.28.86372h-.909-.769l.622.45223.735.5338-.28.8638-.238.7317.622-.4522.735-.5338.735.5338.622.4522-.238-.7317-.28-.8638.735-.5338.622-.45223h-.769-.909z" fill="#45ffca" stroke="#000" stroke-width=".5"/><path d="m367.738 25.9227-.238-.7317-.238.7317-.28.8638h-.909-.769l.622.4522.735.5338-.28.8638-.238.7317.622-.4522.735-.5338.735.5338.622.4522-.238-.7317-.28-.8638.735-.5338.622-.4522h-.769-.909z" fill="#45ffca" stroke="#000" stroke-width=".5"/><path d="m380.738 6.92275-.238-.73177-.238.73177-.28.86372h-.909-.769l.622.45226.735.53381-.28.86373-.238.73173.622-.45222.735-.53381.735.53381.622.45222-.238-.73173-.28-.86373.735-.53381.622-.45226h-.769-.909z" fill="#45ffca" stroke="#000" stroke-width=".5"/><path d="m344.738 28.9227-.238-.7317-.238.7317-.28.8638h-.909-.769l.622.4522.735.5338-.28.8638-.238.7317.622-.4522.735-.5338.735.5338.622.4522-.238-.7317-.28-.8638.735-.5338.622-.4522h-.769-.909z" fill="#45ffca" stroke="#000" stroke-width=".5"/><path d="m334.738 5.92275-.238-.73177-.238.73177-.28.86372h-.909-.769l.622.45226.735.53381-.28.86373-.238.73176.622-.45225.735-.53381.735.53381.622.45225-.238-.73176-.28-.86373.735-.53381.622-.45226h-.769-.909z" fill="#45ffca" stroke="#000" stroke-width=".5"/><path d="m320.738 26.9227-.238-.7317-.238.7317-.28.8638h-.909-.769l.622.4522.735.5338-.28.8638-.238.7317.622-.4522.735-.5338.735.5338.622.4522-.238-.7317-.28-.8638.735-.5338.622-.4522h-.769-.909z" fill="#45ffca" stroke="#000" stroke-width=".5"/><path d="m309.738 8.92275-.238-.73177-.238.73177-.28.86372h-.909-.769l.622.45223.735.5338-.28.8638-.238.7317.622-.4522.735-.5338.735.5338.622.4522-.238-.7317-.28-.8638.735-.5338.622-.45223h-.769-.909z" fill="#45ffca" stroke="#000" stroke-width=".5"/><path d="m295.738 29.9227-.238-.7317-.238.7317-.28.8638h-.909-.769l.622.4522.735.5338-.28.8638-.238.7317.622-.4522.735-.5338.735.5338.622.4522-.238-.7317-.28-.8638.735-.5338.622-.4522h-.769-.909z" fill="#45ffca" stroke="#000" stroke-width=".5"/><path d="m300.026 17.218h-2.548v5.782h-1.358v-7h1.022l.336.574.994-.574h1.554zm7.065 4.564v1.218h-3.906l-1.624-.938v-5.194l1.624-.938h2.282l1.624.938v3.108h-4.172v1.806zm-4.172-4.634v1.61h2.814v-1.61zm10.874 5.922h-2.114l-.994-.574v3.304h-1.358v-9.87h1.022l.336.574.994-.574h2.114l1.624.938v5.264zm-3.108-5.922v4.704h3.374v-4.704zm12.498 4.634v1.218h-3.906l-1.624-.938v-5.194l1.624-.938h2.282l1.624.938v3.108h-4.172v1.806zm-4.172-4.634v1.61h2.814v-1.61zm7.486 2.982v1.722h2.814v-1.722zm.266 2.94-1.624-.938v-2.282l1.624-.938h2.548v-1.694h-3.472v-1.218h3.206l1.624.938v6.132h-.364l-.994-.574-.994.574zm5.588-5.852v-1.218h1.288v-1.176l1.358-.784v1.96h1.68v1.218h-1.68v4.564h1.68v1.218h-1.414l-1.624-.938v-4.844zm11.819 4.564v1.218h-3.906l-1.624-.938v-5.194l1.624-.938h2.282l1.624.938v3.108h-4.172v1.806zm-4.172-4.634v1.61h2.814v-1.61zm8.031-1.218h2.114l.994.574v-3.724h1.358v10.29h-1.022l-.336-.574-.994.574h-2.114l-1.624-.938v-5.264zm3.108 5.922v-4.704h-3.374v4.704zm6.671-4.634v-1.218h1.288v-1.176l1.358-.784v1.96h1.68v1.218h-1.68v4.564h1.68v1.218h-1.414l-1.624-.938v-4.844zm11.819 4.564v1.218h-3.906l-1.624-.938v-5.194l1.624-.938h2.282l1.624.938v3.108h-4.172v1.806zm-4.172-4.634v1.61h2.814v-1.61zm5.567 5.852 2.506-3.57-2.422-3.43h1.512l1.624 2.408 1.624-2.408h1.512l-2.436 3.43 2.52 3.57h-1.47l-1.75-2.562-1.75 2.562zm7.28-5.782v-1.218h1.288v-1.176l1.358-.784v1.96h1.68v1.218h-1.68v4.564h1.68v1.218h-1.414l-1.624-.938v-4.844z" fill="#000"/><path d="m382.738 27.9227-.238-.7317-.238.7317-.28.8638h-.909-.769l.622.4522.735.5338-.28.8638-.238.7317.622-.4522.735-.5338.735.5338.622.4522-.238-.7317-.28-.8638.735-.5338.622-.4522h-.769-.909z" fill="#45ffca" stroke="#000" stroke-width=".5"/><path d="m387.5 3v31h1v-31zm-96 31v-31h-1v31z" fill="#000" mask="url(#c)"/><path d="m388 1h97v35h-97z" fill="#ffa732" fill-opacity=".89"/><path d="m388 36.5h1.01v-1h-1.01zm3.031 0h2.021v-1h-2.021zm4.042 0h2.021v-1h-2.021zm4.042 0h2.02v-1h-2.02zm4.041 0h2.021v-1h-2.021zm4.042 0h2.021v-1h-2.021zm4.042 0h2.02v-1h-2.02zm4.041 0h2.021v-1h-2.021zm4.042 0h2.021v-1h-2.021zm4.042 0h2.02v-1h-2.02zm4.041 0h2.021v-1h-2.021zm4.042 0h2.021v-1h-2.021zm4.042 0h2.02v-1h-2.02zm4.041 0h2.021v-1h-2.021zm4.042 0h2.021v-1h-2.021zm4.042 0h2.02v-1h-2.02zm4.041 0h2.021v-1h-2.021zm4.042 0h2.021v-1h-2.021zm4.042 0h2.02v-1h-2.02zm4.041 0h2.021v-1h-2.021zm4.042 0h2.021v-1h-2.021zm4.042 0h2.02v-1h-2.02zm4.041 0h2.021v-1h-2.021zm4.042 0h2.021v-1h-2.021zm4.042 0h1.01v-1h-1.01zm1.01-36h-1.01v1h1.01zm-3.031 0h-2.021v1h2.021zm-4.042 0h-2.021v1h2.021zm-4.042 0h-2.02v1h2.02zm-4.041 0h-2.021v1h2.021zm-4.042 0h-2.021v1h2.021zm-4.042 0h-2.02v1h2.02zm-4.041 0h-2.021v1h2.021zm-4.042 0h-2.021v1h2.021zm-4.042 0h-2.02v1h2.02zm-4.041 0h-2.021v1h2.021zm-4.042 0h-2.021v1h2.021zm-4.042 0h-2.02v1h2.02zm-4.041 0h-2.021v1h2.021zm-4.042 0h-2.021v1h2.021zm-4.042 0h-2.02v1h2.02zm-4.041 0h-2.021v1h2.021zm-4.042 0h-2.021v1h2.021zm-4.042 0h-2.02v1h2.02zm-4.041 0h-2.021v1h2.021zm-4.042 0h-2.021v1h2.021zm-4.042 0h-2.02v1h2.02zm-4.041 0h-2.021v1h2.021zm-4.042 0h-2.021v1h2.021zm-4.042 0h-1.01v1h1.01z" fill="#000"/><path d="m392.738 3.92275-.238-.73177-.238.73177-.28.86372h-.909-.769l.622.45226.735.53381-.28.86373-.238.73176.622-.45225.735-.53381.735.53381.622.45225-.238-.73176-.28-.86373.735-.53381.622-.45226h-.769-.909z" fill="#45ffca" stroke="#000" stroke-width=".5"/><path d="m457.738 8.92275-.238-.73177-.238.73177-.28.86372h-.909-.769l.622.45223.735.5338-.28.8638-.238.7317.622-.4522.735-.5338.735.5338.622.4522-.238-.7317-.28-.8638.735-.5338.622-.45223h-.769-.909z" fill="#45ffca" stroke="#000" stroke-width=".5"/><path d="m464.738 25.9227-.238-.7317-.238.7317-.28.8638h-.909-.769l.622.4522.735.5338-.28.8638-.238.7317.622-.4522.735-.5338.735.5338.622.4522-.238-.7317-.28-.8638.735-.5338.622-.4522h-.769-.909z" fill="#45ffca" stroke="#000" stroke-width=".5"/><path d="m477.738 6.92275-.238-.73177-.238.73177-.28.86372h-.909-.769l.622.45226.735.53381-.28.86373-.238.73173.622-.45222.735-.53381.735.53381.622.45222-.238-.73173-.28-.86373.735-.53381.622-.45226h-.769-.909z" fill="#45ffca" stroke="#000" stroke-width=".5"/><path d="m441.738 28.9227-.238-.7317-.238.7317-.28.8638h-.909-.769l.622.4522.735.5338-.28.8638-.238.7317.622-.4522.735-.5338.735.5338.622.4522-.238-.7317-.28-.8638.735-.5338.622-.4522h-.769-.909z" fill="#45ffca" stroke="#000" stroke-width=".5"/><path d="m431.738 5.92275-.238-.73177-.238.73177-.28.86372h-.909-.769l.622.45226.735.53381-.28.86373-.238.73176.622-.45225.735-.53381.735.53381.622.45225-.238-.73176-.28-.86373.735-.53381.622-.45226h-.769-.909z" fill="#45ffca" stroke="#000" stroke-width=".5"/><path d="m417.738 26.9227-.238-.7317-.238.7317-.28.8638h-.909-.769l.622.4522.735.5338-.28.8638-.238.7317.622-.4522.735-.5338.735.5338.622.4522-.238-.7317-.28-.8638.735-.5338.622-.4522h-.769-.909z" fill="#45ffca" stroke="#000" stroke-width=".5"/><path d="m406.738 8.92275-.238-.73177-.238.73177-.28.86372h-.909-.769l.622.45223.735.5338-.28.8638-.238.7317.622-.4522.735-.5338.735.5338.622.4522-.238-.7317-.28-.8638.735-.5338.622-.45223h-.769-.909z" fill="#45ffca" stroke="#000" stroke-width=".5"/><path d="m392.738 29.9227-.238-.7317-.238.7317-.28.8638h-.909-.769l.622.4522.735.5338-.28.8638-.238.7317.622-.4522.735-.5338.735.5338.622.4522-.238-.7317-.28-.8638.735-.5338.622-.4522h-.769-.909z" fill="#45ffca" stroke="#000" stroke-width=".5"/><path d="m397.026 17.218h-2.548v5.782h-1.358v-7h1.022l.336.574.994-.574h1.554zm7.065 4.564v1.218h-3.906l-1.624-.938v-5.194l1.624-.938h2.282l1.624.938v3.108h-4.172v1.806zm-4.172-4.634v1.61h2.814v-1.61zm10.874 5.922h-2.114l-.994-.574v3.304h-1.358v-9.87h1.022l.336.574.994-.574h2.114l1.624.938v5.264zm-3.108-5.922v4.704h3.374v-4.704zm12.498 4.634v1.218h-3.906l-1.624-.938v-5.194l1.624-.938h2.282l1.624.938v3.108h-4.172v1.806zm-4.172-4.634v1.61h2.814v-1.61zm7.486 2.982v1.722h2.814v-1.722zm.266 2.94-1.624-.938v-2.282l1.624-.938h2.548v-1.694h-3.472v-1.218h3.206l1.624.938v6.132h-.364l-.994-.574-.994.574zm5.588-5.852v-1.218h1.288v-1.176l1.358-.784v1.96h1.68v1.218h-1.68v4.564h1.68v1.218h-1.414l-1.624-.938v-4.844zm11.819 4.564v1.218h-3.906l-1.624-.938v-5.194l1.624-.938h2.282l1.624.938v3.108h-4.172v1.806zm-4.172-4.634v1.61h2.814v-1.61zm8.031-1.218h2.114l.994.574v-3.724h1.358v10.29h-1.022l-.336-.574-.994.574h-2.114l-1.624-.938v-5.264zm3.108 5.922v-4.704h-3.374v4.704zm6.671-4.634v-1.218h1.288v-1.176l1.358-.784v1.96h1.68v1.218h-1.68v4.564h1.68v1.218h-1.414l-1.624-.938v-4.844zm11.819 4.564v1.218h-3.906l-1.624-.938v-5.194l1.624-.938h2.282l1.624.938v3.108h-4.172v1.806zm-4.172-4.634v1.61h2.814v-1.61zm5.567 5.852 2.506-3.57-2.422-3.43h1.512l1.624 2.408 1.624-2.408h1.512l-2.436 3.43 2.52 3.57h-1.47l-1.75-2.562-1.75 2.562zm7.28-5.782v-1.218h1.288v-1.176l1.358-.784v1.96h1.68v1.218h-1.68v4.564h1.68v1.218h-1.414l-1.624-.938v-4.844z" fill="#000"/><path d="m479.738 27.9227-.238-.7317-.238.7317-.28.8638h-.909-.769l.622.4522.735.5338-.28.8638-.238.7317.622-.4522.735-.5338.735.5338.622.4522-.238-.7317-.28-.8638.735-.5338.622-.4522h-.769-.909z" fill="#45ffca" stroke="#000" stroke-width=".5"/><path d="m484.5 3v31h1v-31zm-96 31v-31h-1v31z" fill="#000" mask="url(#d)"/><path d="m485 1h97v35h-97z" fill="#ffa732" fill-opacity=".89"/><path d="m485 36.5h1.01v-1h-1.01zm3.031 0h2.021v-1h-2.021zm4.042 0h2.021v-1h-2.021zm4.042 0h2.02v-1h-2.02zm4.041 0h2.021v-1h-2.021zm4.042 0h2.021v-1h-2.021zm4.042 0h2.02v-1h-2.02zm4.041 0h2.021v-1h-2.021zm4.042 0h2.021v-1h-2.021zm4.042 0h2.02v-1h-2.02zm4.041 0h2.021v-1h-2.021zm4.042 0h2.021v-1h-2.021zm4.042 0h2.02v-1h-2.02zm4.041 0h2.021v-1h-2.021zm4.042 0h2.021v-1h-2.021zm4.042 0h2.02v-1h-2.02zm4.041 0h2.021v-1h-2.021zm4.042 0h2.021v-1h-2.021zm4.042 0h2.02v-1h-2.02zm4.041 0h2.021v-1h-2.021zm4.042 0h2.021v-1h-2.021zm4.042 0h2.02v-1h-2.02zm4.041 0h2.021v-1h-2.021zm4.042 0h2.021v-1h-2.021zm4.042 0h1.01v-1h-1.01zm1.01-36h-1.01v1h1.01zm-3.031 0h-2.021v1h2.021zm-4.042 0h-2.021v1h2.021zm-4.042 0h-2.02v1h2.02zm-4.041 0h-2.021v1h2.021zm-4.042 0h-2.021v1h2.021zm-4.042 0h-2.02v1h2.02zm-4.041 0h-2.021v1h2.021zm-4.042 0h-2.021v1h2.021zm-4.042 0h-2.02v1h2.02zm-4.041 0h-2.021v1h2.021zm-4.042 0h-2.021v1h2.021zm-4.042 0h-2.02v1h2.02zm-4.041 0h-2.021v1h2.021zm-4.042 0h-2.021v1h2.021zm-4.042 0h-2.02v1h2.02zm-4.041 0h-2.021v1h2.021zm-4.042 0h-2.021v1h2.021zm-4.042 0h-2.02v1h2.02zm-4.041 0h-2.021v1h2.021zm-4.042 0h-2.021v1h2.021zm-4.042 0h-2.02v1h2.02zm-4.041 0h-2.021v1h2.021zm-4.042 0h-2.021v1h2.021zm-4.042 0h-1.01v1h1.01z" fill="#000"/><path d="m489.738 3.92275-.238-.73177-.238.73177-.28.86372h-.909-.769l.622.45226.735.53381-.28.86373-.238.73176.622-.45225.735-.53381.735.53381.622.45225-.238-.73176-.28-.86373.735-.53381.622-.45226h-.769-.909z" fill="#45ffca" stroke="#000" stroke-width=".5"/><path d="m554.738 8.92275-.238-.73177-.238.73177-.28.86372h-.909-.769l.622.45223.735.5338-.28.8638-.238.7317.622-.4522.735-.5338.735.5338.622.4522-.238-.7317-.28-.8638.735-.5338.622-.45223h-.769-.909z" fill="#45ffca" stroke="#000" stroke-width=".5"/><path d="m561.738 25.9227-.238-.7317-.238.7317-.28.8638h-.909-.769l.622.4522.735.5338-.28.8638-.238.7317.622-.4522.735-.5338.735.5338.622.4522-.238-.7317-.28-.8638.735-.5338.622-.4522h-.769-.909z" fill="#45ffca" stroke="#000" stroke-width=".5"/><path d="m574.738 6.92275-.238-.73177-.238.73177-.28.86372h-.909-.769l.622.45226.735.53381-.28.86373-.238.73173.622-.45222.735-.53381.735.53381.622.45222-.238-.73173-.28-.86373.735-.53381.622-.45226h-.769-.909z" fill="#45ffca" stroke="#000" stroke-width=".5"/><path d="m538.738 28.9227-.238-.7317-.238.7317-.28.8638h-.909-.769l.622.4522.735.5338-.28.8638-.238.7317.622-.4522.735-.5338.735.5338.622.4522-.238-.7317-.28-.8638.735-.5338.622-.4522h-.769-.909z" fill="#45ffca" stroke="#000" stroke-width=".5"/><path d="m528.738 5.92275-.238-.73177-.238.73177-.28.86372h-.909-.769l.622.45226.735.53381-.28.86373-.238.73176.622-.45225.735-.53381.735.53381.622.45225-.238-.73176-.28-.86373.735-.53381.622-.45226h-.769-.909z" fill="#45ffca" stroke="#000" stroke-width=".5"/><path d="m514.738 26.9227-.238-.7317-.238.7317-.28.8638h-.909-.769l.622.4522.735.5338-.28.8638-.238.7317.622-.4522.735-.5338.735.5338.622.4522-.238-.7317-.28-.8638.735-.5338.622-.4522h-.769-.909z" fill="#45ffca" stroke="#000" stroke-width=".5"/><path d="m503.738 8.92275-.238-.73177-.238.73177-.28.86372h-.909-.769l.622.45223.735.5338-.28.8638-.238.7317.622-.4522.735-.5338.735.5338.622.4522-.238-.7317-.28-.8638.735-.5338.622-.45223h-.769-.909z" fill="#45ffca" stroke="#000" stroke-width=".5"/><path d="m489.738 29.9227-.238-.7317-.238.7317-.28.8638h-.909-.769l.622.4522.735.5338-.28.8638-.238.7317.622-.4522.735-.5338.735.5338.622.4522-.238-.7317-.28-.8638.735-.5338.622-.4522h-.769-.909z" fill="#45ffca" stroke="#000" stroke-width=".5"/><path d="m494.026 17.218h-2.548v5.782h-1.358v-7h1.022l.336.574.994-.574h1.554zm7.065 4.564v1.218h-3.906l-1.624-.938v-5.194l1.624-.938h2.282l1.624.938v3.108h-4.172v1.806zm-4.172-4.634v1.61h2.814v-1.61zm10.874 5.922h-2.114l-.994-.574v3.304h-1.358v-9.87h1.022l.336.574.994-.574h2.114l1.624.938v5.264zm-3.108-5.922v4.704h3.374v-4.704zm12.498 4.634v1.218h-3.906l-1.624-.938v-5.194l1.624-.938h2.282l1.624.938v3.108h-4.172v1.806zm-4.172-4.634v1.61h2.814v-1.61zm7.486 2.982v1.722h2.814v-1.722zm.266 2.94-1.624-.938v-2.282l1.624-.938h2.548v-1.694h-3.472v-1.218h3.206l1.624.938v6.132h-.364l-.994-.574-.994.574zm5.588-5.852v-1.218h1.288v-1.176l1.358-.784v1.96h1.68v1.218h-1.68v4.564h1.68v1.218h-1.414l-1.624-.938v-4.844zm11.819 4.564v1.218h-3.906l-1.624-.938v-5.194l1.624-.938h2.282l1.624.938v3.108h-4.172v1.806zm-4.172-4.634v1.61h2.814v-1.61zm8.031-1.218h2.114l.994.574v-3.724h1.358v10.29h-1.022l-.336-.574-.994.574h-2.114l-1.624-.938v-5.264zm3.108 5.922v-4.704h-3.374v4.704zm6.671-4.634v-1.218h1.288v-1.176l1.358-.784v1.96h1.68v1.218h-1.68v4.564h1.68v1.218h-1.414l-1.624-.938v-4.844zm11.819 4.564v1.218h-3.906l-1.624-.938v-5.194l1.624-.938h2.282l1.624.938v3.108h-4.172v1.806zm-4.172-4.634v1.61h2.814v-1.61zm5.567 5.852 2.506-3.57-2.422-3.43h1.512l1.624 2.408 1.624-2.408h1.512l-2.436 3.43 2.52 3.57h-1.47l-1.75-2.562-1.75 2.562zm7.28-5.782v-1.218h1.288v-1.176l1.358-.784v1.96h1.68v1.218h-1.68v4.564h1.68v1.218h-1.414l-1.624-.938v-4.844z" fill="#000"/><path d="m576.738 27.9227-.238-.7317-.238.7317-.28.8638h-.909-.769l.622.4522.735.5338-.28.8638-.238.7317.622-.4522.735-.5338.735.5338.622.4522-.238-.7317-.28-.8638.735-.5338.622-.4522h-.769-.909z" fill="#45ffca" stroke="#000" stroke-width=".5"/><path d="m581.5 3v31h1v-31zm-96 31v-31h-1v31z" fill="#000" mask="url(#e)"/><path d="m582 1h97v35h-97z" fill="#ffa732" fill-opacity=".89"/><path d="m582 36.5h1.01v-1h-1.01zm3.031 0h2.021v-1h-2.021zm4.042 0h2.021v-1h-2.021zm4.042 0h2.02v-1h-2.02zm4.041 0h2.021v-1h-2.021zm4.042 0h2.021v-1h-2.021zm4.042 0h2.02v-1h-2.02zm4.041 0h2.021v-1h-2.021zm4.042 0h2.021v-1h-2.021zm4.042 0h2.02v-1h-2.02zm4.041 0h2.021v-1h-2.021zm4.042 0h2.021v-1h-2.021zm4.042 0h2.02v-1h-2.02zm4.041 0h2.021v-1h-2.021zm4.042 0h2.021v-1h-2.021zm4.042 0h2.02v-1h-2.02zm4.041 0h2.021v-1h-2.021zm4.042 0h2.021v-1h-2.021zm4.042 0h2.02v-1h-2.02zm4.041 0h2.021v-1h-2.021zm4.042 0h2.021v-1h-2.021zm4.042 0h2.02v-1h-2.02zm4.041 0h2.021v-1h-2.021zm4.042 0h2.021v-1h-2.021zm4.042 0h1.01v-1h-1.01zm1.01-36h-1.01v1h1.01zm-3.031 0h-2.021v1h2.021zm-4.042 0h-2.021v1h2.021zm-4.042 0h-2.02v1h2.02zm-4.041 0h-2.021v1h2.021zm-4.042 0h-2.021v1h2.021zm-4.042 0h-2.02v1h2.02zm-4.041 0h-2.021v1h2.021zm-4.042 0h-2.021v1h2.021zm-4.042 0h-2.02v1h2.02zm-4.041 0h-2.021v1h2.021zm-4.042 0h-2.021v1h2.021zm-4.042 0h-2.02v1h2.02zm-4.041 0h-2.021v1h2.021zm-4.042 0h-2.021v1h2.021zm-4.042 0h-2.02v1h2.02zm-4.041 0h-2.021v1h2.021zm-4.042 0h-2.021v1h2.021zm-4.042 0h-2.02v1h2.02zm-4.041 0h-2.021v1h2.021zm-4.042 0h-2.021v1h2.021zm-4.042 0h-2.02v1h2.02zm-4.041 0h-2.021v1h2.021zm-4.042 0h-2.021v1h2.021zm-4.042 0h-1.01v1h1.01z" fill="#000"/><path d="m586.738 3.92275-.238-.73177-.238.73177-.28.86372h-.909-.769l.622.45226.735.53381-.28.86373-.238.73176.622-.45225.735-.53381.735.53381.622.45225-.238-.73176-.28-.86373.735-.53381.622-.45226h-.769-.909z" fill="#45ffca" stroke="#000" stroke-width=".5"/><path d="m651.738 8.92275-.238-.73177-.238.73177-.28.86372h-.909-.769l.622.45223.735.5338-.28.8638-.238.7317.622-.4522.735-.5338.735.5338.622.4522-.238-.7317-.28-.8638.735-.5338.622-.45223h-.769-.909z" fill="#45ffca" stroke="#000" stroke-width=".5"/><path d="m658.738 25.9227-.238-.7317-.238.7317-.28.8638h-.909-.769l.622.4522.735.5338-.28.8638-.238.7317.622-.4522.735-.5338.735.5338.622.4522-.238-.7317-.28-.8638.735-.5338.622-.4522h-.769-.909z" fill="#45ffca" stroke="#000" stroke-width=".5"/><path d="m671.738 6.92275-.238-.73177-.238.73177-.28.86372h-.909-.769l.622.45226.735.53381-.28.86373-.238.73173.622-.45222.735-.53381.735.53381.622.45222-.238-.73173-.28-.86373.735-.53381.622-.45226h-.769-.909z" fill="#45ffca" stroke="#000" stroke-width=".5"/><path d="m635.738 28.9227-.238-.7317-.238.7317-.28.8638h-.909-.769l.622.4522.735.5338-.28.8638-.238.7317.622-.4522.735-.5338.735.5338.622.4522-.238-.7317-.28-.8638.735-.5338.622-.4522h-.769-.909z" fill="#45ffca" stroke="#000" stroke-width=".5"/><path d="m625.738 5.92275-.238-.73177-.238.73177-.28.86372h-.909-.769l.622.45226.735.53381-.28.86373-.238.73176.622-.45225.735-.53381.735.53381.622.45225-.238-.73176-.28-.86373.735-.53381.622-.45226h-.769-.909z" fill="#45ffca" stroke="#000" stroke-width=".5"/><path d="m611.738 26.9227-.238-.7317-.238.7317-.28.8638h-.909-.769l.622.4522.735.5338-.28.8638-.238.7317.622-.4522.735-.5338.735.5338.622.4522-.238-.7317-.28-.8638.735-.5338.622-.4522h-.769-.909z" fill="#45ffca" stroke="#000" stroke-width=".5"/><path d="m600.738 8.92275-.238-.73177-.238.73177-.28.86372h-.909-.769l.622.45223.735.5338-.28.8638-.238.7317.622-.4522.735-.5338.735.5338.622.4522-.238-.7317-.28-.8638.735-.5338.622-.45223h-.769-.909z" fill="#45ffca" stroke="#000" stroke-width=".5"/><path d="m586.738 29.9227-.238-.7317-.238.7317-.28.8638h-.909-.769l.622.4522.735.5338-.28.8638-.238.7317.622-.4522.735-.5338.735.5338.622.4522-.238-.7317-.28-.8638.735-.5338.622-.4522h-.769-.909z" fill="#45ffca" stroke="#000" stroke-width=".5"/><path d="m591.026 17.218h-2.548v5.782h-1.358v-7h1.022l.336.574.994-.574h1.554zm7.065 4.564v1.218h-3.906l-1.624-.938v-5.194l1.624-.938h2.282l1.624.938v3.108h-4.172v1.806zm-4.172-4.634v1.61h2.814v-1.61zm10.874 5.922h-2.114l-.994-.574v3.304h-1.358v-9.87h1.022l.336.574.994-.574h2.114l1.624.938v5.264zm-3.108-5.922v4.704h3.374v-4.704zm12.498 4.634v1.218h-3.906l-1.624-.938v-5.194l1.624-.938h2.282l1.624.938v3.108h-4.172v1.806zm-4.172-4.634v1.61h2.814v-1.61zm7.486 2.982v1.722h2.814v-1.722zm.266 2.94-1.624-.938v-2.282l1.624-.938h2.548v-1.694h-3.472v-1.218h3.206l1.624.938v6.132h-.364l-.994-.574-.994.574zm5.588-5.852v-1.218h1.288v-1.176l1.358-.784v1.96h1.68v1.218h-1.68v4.564h1.68v1.218h-1.414l-1.624-.938v-4.844zm11.819 4.564v1.218h-3.906l-1.624-.938v-5.194l1.624-.938h2.282l1.624.938v3.108h-4.172v1.806zm-4.172-4.634v1.61h2.814v-1.61zm8.031-1.218h2.114l.994.574v-3.724h1.358v10.29h-1.022l-.336-.574-.994.574h-2.114l-1.624-.938v-5.264zm3.108 5.922v-4.704h-3.374v4.704zm6.671-4.634v-1.218h1.288v-1.176l1.358-.784v1.96h1.68v1.218h-1.68v4.564h1.68v1.218h-1.414l-1.624-.938v-4.844zm11.819 4.564v1.218h-3.906l-1.624-.938v-5.194l1.624-.938h2.282l1.624.938v3.108h-4.172v1.806zm-4.172-4.634v1.61h2.814v-1.61zm5.567 5.852 2.506-3.57-2.422-3.43h1.512l1.624 2.408 1.624-2.408h1.512l-2.436 3.43 2.52 3.57h-1.47l-1.75-2.562-1.75 2.562zm7.28-5.782v-1.218h1.288v-1.176l1.358-.784v1.96h1.68v1.218h-1.68v4.564h1.68v1.218h-1.414l-1.624-.938v-4.844z" fill="#000"/><path d="m673.738 27.9227-.238-.7317-.238.7317-.28.8638h-.909-.769l.622.4522.735.5338-.28.8638-.238.7317.622-.4522.735-.5338.735.5338.622.4522-.238-.7317-.28-.8638.735-.5338.622-.4522h-.769-.909z" fill="#45ffca" stroke="#000" stroke-width=".5"/><path d="m678.5 3v31h1v-31zm-96 31v-31h-1v31z" fill="#000" mask="url(#f)"/><path d="m679 1h97v35h-97z" fill="#ffa732" fill-opacity=".89"/><path d="m679 36.5h1.01v-1h-1.01zm3.031 0h2.021v-1h-2.021zm4.042 0h2.021v-1h-2.021zm4.042 0h2.02v-1h-2.02zm4.041 0h2.021v-1h-2.021zm4.042 0h2.021v-1h-2.021zm4.042 0h2.02v-1h-2.02zm4.041 0h2.021v-1h-2.021zm4.042 0h2.021v-1h-2.021zm4.042 0h2.02v-1h-2.02zm4.041 0h2.021v-1h-2.021zm4.042 0h2.021v-1h-2.021zm4.042 0h2.02v-1h-2.02zm4.041 0h2.021v-1h-2.021zm4.042 0h2.021v-1h-2.021zm4.042 0h2.02v-1h-2.02zm4.041 0h2.021v-1h-2.021zm4.042 0h2.021v-1h-2.021zm4.042 0h2.02v-1h-2.02zm4.041 0h2.021v-1h-2.021zm4.042 0h2.021v-1h-2.021zm4.042 0h2.02v-1h-2.02zm4.041 0h2.021v-1h-2.021zm4.042 0h2.021v-1h-2.021zm4.042 0h1.01v-1h-1.01zm1.01-36h-1.01v1h1.01zm-3.031 0h-2.021v1h2.021zm-4.042 0h-2.021v1h2.021zm-4.042 0h-2.02v1h2.02zm-4.041 0h-2.021v1h2.021zm-4.042 0h-2.021v1h2.021zm-4.042 0h-2.02v1h2.02zm-4.041 0h-2.021v1h2.021zm-4.042 0h-2.021v1h2.021zm-4.042 0h-2.02v1h2.02zm-4.041 0h-2.021v1h2.021zm-4.042 0h-2.021v1h2.021zm-4.042 0h-2.02v1h2.02zm-4.041 0h-2.021v1h2.021zm-4.042 0h-2.021v1h2.021zm-4.042 0h-2.02v1h2.02zm-4.041 0h-2.021v1h2.021zm-4.042 0h-2.021v1h2.021zm-4.042 0h-2.02v1h2.02zm-4.041 0h-2.021v1h2.021zm-4.042 0h-2.021v1h2.021zm-4.042 0h-2.02v1h2.02zm-4.041 0h-2.021v1h2.021zm-4.042 0h-2.021v1h2.021zm-4.042 0h-1.01v1h1.01z" fill="#000"/><path d="m683.738 3.92275-.238-.73177-.238.73177-.28.86372h-.909-.769l.622.45226.735.53381-.28.86373-.238.73176.622-.45225.735-.53381.735.53381.622.45225-.238-.73176-.28-.86373.735-.53381.622-.45226h-.769-.909z" fill="#45ffca" stroke="#000" stroke-width=".5"/><path d="m748.738 8.92275-.238-.73177-.238.73177-.28.86372h-.909-.769l.622.45223.735.5338-.28.8638-.238.7317.622-.4522.735-.5338.735.5338.622.4522-.238-.7317-.28-.8638.735-.5338.622-.45223h-.769-.909z" fill="#45ffca" stroke="#000" stroke-width=".5"/><path d="m755.738 25.9227-.238-.7317-.238.7317-.28.8638h-.909-.769l.622.4522.735.5338-.28.8638-.238.7317.622-.4522.735-.5338.735.5338.622.4522-.238-.7317-.28-.8638.735-.5338.622-.4522h-.769-.909z" fill="#45ffca" stroke="#000" stroke-width=".5"/><path d="m768.738 6.92275-.238-.73177-.238.73177-.28.86372h-.909-.769l.622.45226.735.53381-.28.86373-.238.73173.622-.45222.735-.53381.735.53381.622.45222-.238-.73173-.28-.86373.735-.53381.622-.45226h-.769-.909z" fill="#45ffca" stroke="#000" stroke-width=".5"/><path d="m732.738 28.9227-.238-.7317-.238.7317-.28.8638h-.909-.769l.622.4522.735.5338-.28.8638-.238.7317.622-.4522.735-.5338.735.5338.622.4522-.238-.7317-.28-.8638.735-.5338.622-.4522h-.769-.909z" fill="#45ffca" stroke="#000" stroke-width=".5"/><path d="m722.738 5.92275-.238-.73177-.238.73177-.28.86372h-.909-.769l.622.45226.735.53381-.28.86373-.238.73176.622-.45225.735-.53381.735.53381.622.45225-.238-.73176-.28-.86373.735-.53381.622-.45226h-.769-.909z" fill="#45ffca" stroke="#000" stroke-width=".5"/><path d="m708.738 26.9227-.238-.7317-.238.7317-.28.8638h-.909-.769l.622.4522.735.5338-.28.8638-.238.7317.622-.4522.735-.5338.735.5338.622.4522-.238-.7317-.28-.8638.735-.5338.622-.4522h-.769-.909z" fill="#45ffca" stroke="#000" stroke-width=".5"/><path d="m697.738 8.92275-.238-.73177-.238.73177-.28.86372h-.909-.769l.622.45223.735.5338-.28.8638-.238.7317.622-.4522.735-.5338.735.5338.622.4522-.238-.7317-.28-.8638.735-.5338.622-.45223h-.769-.909z" fill="#45ffca" stroke="#000" stroke-width=".5"/><path d="m683.738 29.9227-.238-.7317-.238.7317-.28.8638h-.909-.769l.622.4522.735.5338-.28.8638-.238.7317.622-.4522.735-.5338.735.5338.622.4522-.238-.7317-.28-.8638.735-.5338.622-.4522h-.769-.909z" fill="#45ffca" stroke="#000" stroke-width=".5"/><path d="m688.026 17.218h-2.548v5.782h-1.358v-7h1.022l.336.574.994-.574h1.554zm7.065 4.564v1.218h-3.906l-1.624-.938v-5.194l1.624-.938h2.282l1.624.938v3.108h-4.172v1.806zm-4.172-4.634v1.61h2.814v-1.61zm10.874 5.922h-2.114l-.994-.574v3.304h-1.358v-9.87h1.022l.336.574.994-.574h2.114l1.624.938v5.264zm-3.108-5.922v4.704h3.374v-4.704zm12.498 4.634v1.218h-3.906l-1.624-.938v-5.194l1.624-.938h2.282l1.624.938v3.108h-4.172v1.806zm-4.172-4.634v1.61h2.814v-1.61zm7.486 2.982v1.722h2.814v-1.722zm.266 2.94-1.624-.938v-2.282l1.624-.938h2.548v-1.694h-3.472v-1.218h3.206l1.624.938v6.132h-.364l-.994-.574-.994.574zm5.588-5.852v-1.218h1.288v-1.176l1.358-.784v1.96h1.68v1.218h-1.68v4.564h1.68v1.218h-1.414l-1.624-.938v-4.844zm11.819 4.564v1.218h-3.906l-1.624-.938v-5.194l1.624-.938h2.282l1.624.938v3.108h-4.172v1.806zm-4.172-4.634v1.61h2.814v-1.61zm8.031-1.218h2.114l.994.574v-3.724h1.358v10.29h-1.022l-.336-.574-.994.574h-2.114l-1.624-.938v-5.264zm3.108 5.922v-4.704h-3.374v4.704zm6.671-4.634v-1.218h1.288v-1.176l1.358-.784v1.96h1.68v1.218h-1.68v4.564h1.68v1.218h-1.414l-1.624-.938v-4.844zm11.819 4.564v1.218h-3.906l-1.624-.938v-5.194l1.624-.938h2.282l1.624.938v3.108h-4.172v1.806zm-4.172-4.634v1.61h2.814v-1.61zm5.567 5.852 2.506-3.57-2.422-3.43h1.512l1.624 2.408 1.624-2.408h1.512l-2.436 3.43 2.52 3.57h-1.47l-1.75-2.562-1.75 2.562zm7.28-5.782v-1.218h1.288v-1.176l1.358-.784v1.96h1.68v1.218h-1.68v4.564h1.68v1.218h-1.414l-1.624-.938v-4.844z" fill="#000"/><path d="m770.738 27.9227-.238-.7317-.238.7317-.28.8638h-.909-.769l.622.4522.735.5338-.28.8638-.238.7317.622-.4522.735-.5338.735.5338.622.4522-.238-.7317-.28-.8638.735-.5338.622-.4522h-.769-.909z" fill="#45ffca" stroke="#000" stroke-width=".5"/><path d="m775.5 3v31h1v-31zm-96 31v-31h-1v31z" fill="#000" mask="url(#g)"/><path d="m776 1h97v35h-97z" fill="#ffa732" fill-opacity=".89"/><path d="m776 36.5h1.01v-1h-1.01zm3.031 0h2.021v-1h-2.021zm4.042 0h2.021v-1h-2.021zm4.042 0h2.02v-1h-2.02zm4.041 0h2.021v-1h-2.021zm4.042 0h2.021v-1h-2.021zm4.042 0h2.02v-1h-2.02zm4.041 0h2.021v-1h-2.021zm4.042 0h2.021v-1h-2.021zm4.042 0h2.02v-1h-2.02zm4.041 0h2.021v-1h-2.021zm4.042 0h2.021v-1h-2.021zm4.042 0h2.02v-1h-2.02zm4.041 0h2.021v-1h-2.021zm4.042 0h2.021v-1h-2.021zm4.042 0h2.02v-1h-2.02zm4.041 0h2.021v-1h-2.021zm4.042 0h2.021v-1h-2.021zm4.042 0h2.02v-1h-2.02zm4.041 0h2.021v-1h-2.021zm4.042 0h2.021v-1h-2.021zm4.042 0h2.02v-1h-2.02zm4.041 0h2.021v-1h-2.021zm4.042 0h2.021v-1h-2.021zm4.042 0h1.01v-1h-1.01zm1.01-36h-1.01v1h1.01zm-3.031 0h-2.021v1h2.021zm-4.042 0h-2.021v1h2.021zm-4.042 0h-2.02v1h2.02zm-4.041 0h-2.021v1h2.021zm-4.042 0h-2.021v1h2.021zm-4.042 0h-2.02v1h2.02zm-4.041 0h-2.021v1h2.021zm-4.042 0h-2.021v1h2.021zm-4.042 0h-2.02v1h2.02zm-4.041 0h-2.021v1h2.021zm-4.042 0h-2.021v1h2.021zm-4.042 0h-2.02v1h2.02zm-4.041 0h-2.021v1h2.021zm-4.042 0h-2.021v1h2.021zm-4.042 0h-2.02v1h2.02zm-4.041 0h-2.021v1h2.021zm-4.042 0h-2.021v1h2.021zm-4.042 0h-2.02v1h2.02zm-4.041 0h-2.021v1h2.021zm-4.042 0h-2.021v1h2.021zm-4.042 0h-2.02v1h2.02zm-4.041 0h-2.021v1h2.021zm-4.042 0h-2.021v1h2.021zm-4.042 0h-1.01v1h1.01z" fill="#000"/><path d="m780.738 3.92275-.238-.73177-.238.73177-.28.86372h-.909-.769l.622.45226.735.53381-.28.86373-.238.73176.622-.45225.735-.53381.735.53381.622.45225-.238-.73176-.28-.86373.735-.53381.622-.45226h-.769-.909z" fill="#45ffca" stroke="#000" stroke-width=".5"/><path d="m845.738 8.92275-.238-.73177-.238.73177-.28.86372h-.909-.769l.622.45223.735.5338-.28.8638-.238.7317.622-.4522.735-.5338.735.5338.622.4522-.238-.7317-.28-.8638.735-.5338.622-.45223h-.769-.909z" fill="#45ffca" stroke="#000" stroke-width=".5"/><path d="m852.738 25.9227-.238-.7317-.238.7317-.28.8638h-.909-.769l.622.4522.735.5338-.28.8638-.238.7317.622-.4522.735-.5338.735.5338.622.4522-.238-.7317-.28-.8638.735-.5338.622-.4522h-.769-.909z" fill="#45ffca" stroke="#000" stroke-width=".5"/><path d="m865.738 6.92275-.238-.73177-.238.73177-.28.86372h-.909-.769l.622.45226.735.53381-.28.86373-.238.73173.622-.45222.735-.53381.735.53381.622.45222-.238-.73173-.28-.86373.735-.53381.622-.45226h-.769-.909z" fill="#45ffca" stroke="#000" stroke-width=".5"/><path d="m829.738 28.9227-.238-.7317-.238.7317-.28.8638h-.909-.769l.622.4522.735.5338-.28.8638-.238.7317.622-.4522.735-.5338.735.5338.622.4522-.238-.7317-.28-.8638.735-.5338.622-.4522h-.769-.909z" fill="#45ffca" stroke="#000" stroke-width=".5"/><path d="m819.738 5.92275-.238-.73177-.238.73177-.28.86372h-.909-.769l.622.45226.735.53381-.28.86373-.238.73176.622-.45225.735-.53381.735.53381.622.45225-.238-.73176-.28-.86373.735-.53381.622-.45226h-.769-.909z" fill="#45ffca" stroke="#000" stroke-width=".5"/><path d="m805.738 26.9227-.238-.7317-.238.7317-.28.8638h-.909-.769l.622.4522.735.5338-.28.8638-.238.7317.622-.4522.735-.5338.735.5338.622.4522-.238-.7317-.28-.8638.735-.5338.622-.4522h-.769-.909z" fill="#45ffca" stroke="#000" stroke-width=".5"/><path d="m794.738 8.92275-.238-.73177-.238.73177-.28.86372h-.909-.769l.622.45223.735.5338-.28.8638-.238.7317.622-.4522.735-.5338.735.5338.622.4522-.238-.7317-.28-.8638.735-.5338.622-.45223h-.769-.909z" fill="#45ffca" stroke="#000" stroke-width=".5"/><path d="m780.738 29.9227-.238-.7317-.238.7317-.28.8638h-.909-.769l.622.4522.735.5338-.28.8638-.238.7317.622-.4522.735-.5338.735.5338.622.4522-.238-.7317-.28-.8638.735-.5338.622-.4522h-.769-.909z" fill="#45ffca" stroke="#000" stroke-width=".5"/><path d="m785.026 17.218h-2.548v5.782h-1.358v-7h1.022l.336.574.994-.574h1.554zm7.065 4.564v1.218h-3.906l-1.624-.938v-5.194l1.624-.938h2.282l1.624.938v3.108h-4.172v1.806zm-4.172-4.634v1.61h2.814v-1.61zm10.874 5.922h-2.114l-.994-.574v3.304h-1.358v-9.87h1.022l.336.574.994-.574h2.114l1.624.938v5.264zm-3.108-5.922v4.704h3.374v-4.704zm12.498 4.634v1.218h-3.906l-1.624-.938v-5.194l1.624-.938h2.282l1.624.938v3.108h-4.172v1.806zm-4.172-4.634v1.61h2.814v-1.61zm7.486 2.982v1.722h2.814v-1.722zm.266 2.94-1.624-.938v-2.282l1.624-.938h2.548v-1.694h-3.472v-1.218h3.206l1.624.938v6.132h-.364l-.994-.574-.994.574zm5.588-5.852v-1.218h1.288v-1.176l1.358-.784v1.96h1.68v1.218h-1.68v4.564h1.68v1.218h-1.414l-1.624-.938v-4.844zm11.819 4.564v1.218h-3.906l-1.624-.938v-5.194l1.624-.938h2.282l1.624.938v3.108h-4.172v1.806zm-4.172-4.634v1.61h2.814v-1.61zm8.031-1.218h2.114l.994.574v-3.724h1.358v10.29h-1.022l-.336-.574-.994.574h-2.114l-1.624-.938v-5.264zm3.108 5.922v-4.704h-3.374v4.704zm6.671-4.634v-1.218h1.288v-1.176l1.358-.784v1.96h1.68v1.218h-1.68v4.564h1.68v1.218h-1.414l-1.624-.938v-4.844zm11.819 4.564v1.218h-3.906l-1.624-.938v-5.194l1.624-.938h2.282l1.624.938v3.108h-4.172v1.806zm-4.172-4.634v1.61h2.814v-1.61zm5.567 5.852 2.506-3.57-2.422-3.43h1.512l1.624 2.408 1.624-2.408h1.512l-2.436 3.43 2.52 3.57h-1.47l-1.75-2.562-1.75 2.562zm7.28-5.782v-1.218h1.288v-1.176l1.358-.784v1.96h1.68v1.218h-1.68v4.564h1.68v1.218h-1.414l-1.624-.938v-4.844z" fill="#000"/><path d="m867.738 27.9227-.238-.7317-.238.7317-.28.8638h-.909-.769l.622.4522.735.5338-.28.8638-.238.7317.622-.4522.735-.5338.735.5338.622.4522-.238-.7317-.28-.8638.735-.5338.622-.4522h-.769-.909z" fill="#45ffca" stroke="#000" stroke-width=".5"/><path d="m872.5 3v31h1v-31zm-96 31v-31h-1v31z" fill="#000" mask="url(#h)"/><path d="m873 1h97v35h-97z" fill="#ffa732" fill-opacity=".89"/><path d="m873 36.5h1.01v-1h-1.01zm3.031 0h2.021v-1h-2.021zm4.042 0h2.021v-1h-2.021zm4.042 0h2.02v-1h-2.02zm4.041 0h2.021v-1h-2.021zm4.042 0h2.021v-1h-2.021zm4.042 0h2.02v-1h-2.02zm4.041 0h2.021v-1h-2.021zm4.042 0h2.021v-1h-2.021zm4.042 0h2.02v-1h-2.02zm4.041 0h2.021v-1h-2.021zm4.042 0h2.021v-1h-2.021zm4.042 0h2.02v-1h-2.02zm4.041 0h2.021v-1h-2.021zm4.042 0h2.021v-1h-2.021zm4.042 0h2.02v-1h-2.02zm4.041 0h2.021v-1h-2.021zm4.042 0h2.021v-1h-2.021zm4.042 0h2.02v-1h-2.02zm4.041 0h2.021v-1h-2.021zm4.042 0h2.021v-1h-2.021zm4.042 0h2.02v-1h-2.02zm4.041 0h2.021v-1h-2.021zm4.042 0h2.021v-1h-2.021zm4.042 0h1.01v-1h-1.01zm1.01-36h-1.01v1h1.01zm-3.031 0h-2.021v1h2.021zm-4.042 0h-2.021v1h2.021zm-4.042 0h-2.02v1h2.02zm-4.041 0h-2.021v1h2.021zm-4.042 0h-2.021v1h2.021zm-4.042 0h-2.02v1h2.02zm-4.041 0h-2.021v1h2.021zm-4.042 0h-2.021v1h2.021zm-4.042 0h-2.02v1h2.02zm-4.041 0h-2.021v1h2.021zm-4.042 0h-2.021v1h2.021zm-4.042 0h-2.02v1h2.02zm-4.041 0h-2.021v1h2.021zm-4.042 0h-2.021v1h2.021zm-4.042 0h-2.02v1h2.02zm-4.041 0h-2.021v1h2.021zm-4.042 0h-2.021v1h2.021zm-4.042 0h-2.02v1h2.02zm-4.041 0h-2.021v1h2.021zm-4.042 0h-2.021v1h2.021zm-4.042 0h-2.02v1h2.02zm-4.041 0h-2.021v1h2.021zm-4.042 0h-2.021v1h2.021zm-4.042 0h-1.01v1h1.01z" fill="#000"/><path d="m877.738 3.92275-.238-.73177-.238.73177-.28.86372h-.909-.769l.622.45226.735.53381-.28.86373-.238.73176.622-.45225.735-.53381.735.53381.622.45225-.238-.73176-.28-.86373.735-.53381.622-.45226h-.769-.909z" fill="#45ffca" stroke="#000" stroke-width=".5"/><path d="m942.738 8.92275-.238-.73177-.238.73177-.28.86372h-.909-.769l.622.45223.735.5338-.28.8638-.238.7317.622-.4522.735-.5338.735.5338.622.4522-.238-.7317-.28-.8638.735-.5338.622-.45223h-.769-.909z" fill="#45ffca" stroke="#000" stroke-width=".5"/><path d="m949.738 25.9227-.238-.7317-.238.7317-.28.8638h-.909-.769l.622.4522.735.5338-.28.8638-.238.7317.622-.4522.735-.5338.735.5338.622.4522-.238-.7317-.28-.8638.735-.5338.622-.4522h-.769-.909z" fill="#45ffca" stroke="#000" stroke-width=".5"/><path d="m962.738 6.92275-.238-.73177-.238.73177-.28.86372h-.909-.769l.622.45226.735.53381-.28.86373-.238.73173.622-.45222.735-.53381.735.53381.622.45222-.238-.73173-.28-.86373.735-.53381.622-.45226h-.769-.909z" fill="#45ffca" stroke="#000" stroke-width=".5"/><path d="m926.738 28.9227-.238-.7317-.238.7317-.28.8638h-.909-.769l.622.4522.735.5338-.28.8638-.238.7317.622-.4522.735-.5338.735.5338.622.4522-.238-.7317-.28-.8638.735-.5338.622-.4522h-.769-.909z" fill="#45ffca" stroke="#000" stroke-width=".5"/><path d="m916.738 5.92275-.238-.73177-.238.73177-.28.86372h-.909-.769l.622.45226.735.53381-.28.86373-.238.73176.622-.45225.735-.53381.735.53381.622.45225-.238-.73176-.28-.86373.735-.53381.622-.45226h-.769-.909z" fill="#45ffca" stroke="#000" stroke-width=".5"/><path d="m902.738 26.9227-.238-.7317-.238.7317-.28.8638h-.909-.769l.622.4522.735.5338-.28.8638-.238.7317.622-.4522.735-.5338.735.5338.622.4522-.238-.7317-.28-.8638.735-.5338.622-.4522h-.769-.909z" fill="#45ffca" stroke="#000" stroke-width=".5"/><path d="m891.738 8.92275-.238-.73177-.238.73177-.28.86372h-.909-.769l.622.45223.735.5338-.28.8638-.238.7317.622-.4522.735-.5338.735.5338.622.4522-.238-.7317-.28-.8638.735-.5338.622-.45223h-.769-.909z" fill="#45ffca" stroke="#000" stroke-width=".5"/><path d="m877.738 29.9227-.238-.7317-.238.7317-.28.8638h-.909-.769l.622.4522.735.5338-.28.8638-.238.7317.622-.4522.735-.5338.735.5338.622.4522-.238-.7317-.28-.8638.735-.5338.622-.4522h-.769-.909z" fill="#45ffca" stroke="#000" stroke-width=".5"/><path d="m882.026 17.218h-2.548v5.782h-1.358v-7h1.022l.336.574.994-.574h1.554zm7.065 4.564v1.218h-3.906l-1.624-.938v-5.194l1.624-.938h2.282l1.624.938v3.108h-4.172v1.806zm-4.172-4.634v1.61h2.814v-1.61zm10.874 5.922h-2.114l-.994-.574v3.304h-1.358v-9.87h1.022l.336.574.994-.574h2.114l1.624.938v5.264zm-3.108-5.922v4.704h3.374v-4.704zm12.498 4.634v1.218h-3.906l-1.624-.938v-5.194l1.624-.938h2.282l1.624.938v3.108h-4.172v1.806zm-4.172-4.634v1.61h2.814v-1.61zm7.486 2.982v1.722h2.814v-1.722zm.266 2.94-1.624-.938v-2.282l1.624-.938h2.548v-1.694h-3.472v-1.218h3.206l1.624.938v6.132h-.364l-.994-.574-.994.574zm5.588-5.852v-1.218h1.288v-1.176l1.358-.784v1.96h1.68v1.218h-1.68v4.564h1.68v1.218h-1.414l-1.624-.938v-4.844zm11.819 4.564v1.218h-3.906l-1.624-.938v-5.194l1.624-.938h2.282l1.624.938v3.108h-4.172v1.806zm-4.172-4.634v1.61h2.814v-1.61zm8.031-1.218h2.114l.994.574v-3.724h1.358v10.29h-1.022l-.336-.574-.994.574h-2.114l-1.624-.938v-5.264zm3.108 5.922v-4.704h-3.374v4.704zm6.671-4.634v-1.218h1.288v-1.176l1.358-.784v1.96h1.68v1.218h-1.68v4.564h1.68v1.218h-1.414l-1.624-.938v-4.844zm11.819 4.564v1.218h-3.906l-1.624-.938v-5.194l1.624-.938h2.282l1.624.938v3.108h-4.172v1.806zm-4.172-4.634v1.61h2.814v-1.61zm5.567 5.852 2.506-3.57-2.422-3.43h1.512l1.624 2.408 1.624-2.408h1.512l-2.436 3.43 2.52 3.57h-1.47l-1.75-2.562-1.75 2.562zm7.28-5.782v-1.218h1.288v-1.176l1.358-.784v1.96h1.68v1.218h-1.68v4.564h1.68v1.218h-1.414l-1.624-.938v-4.844z" fill="#000"/><path d="m964.738 27.9227-.238-.7317-.238.7317-.28.8638h-.909-.769l.622.4522.735.5338-.28.8638-.238.7317.622-.4522.735-.5338.735.5338.622.4522-.238-.7317-.28-.8638.735-.5338.622-.4522h-.769-.909z" fill="#45ffca" stroke="#000" stroke-width=".5"/><path d="m969.5 3v31h1v-31zm-96 31v-31h-1v31z" fill="#000" mask="url(#i)"/><path d="m970 1h97v35h-97z" fill="#ffa732" fill-opacity=".89"/><path d="m970 36.5h1.01v-1h-1.01zm3.031 0h2.021v-1h-2.021zm4.042 0h2.021v-1h-2.021zm4.042 0h2.02v-1h-2.02zm4.041 0h2.021v-1h-2.021zm4.042 0h2.021v-1h-2.021zm4.042 0h2.02v-1h-2.02zm4.041 0h2.021v-1h-2.021zm4.039 0h2.02v-1h-2.02zm4.04 0h2.03v-1h-2.03zm4.05 0h2.02v-1h-2.02zm4.04 0h2.02v-1h-2.02zm4.04 0h2.02v-1h-2.02zm4.04 0h2.02v-1h-2.02zm4.04 0h2.02v-1h-2.02zm4.04 0h2.03v-1h-2.03zm4.05 0h2.02v-1h-2.02zm4.04 0h2.02v-1h-2.02zm4.04 0h2.02v-1h-2.02zm4.04 0h2.02v-1h-2.02zm4.04 0h2.02v-1h-2.02zm4.04 0h2.03v-1h-2.03zm4.05 0h2.02v-1h-2.02zm4.04 0h2.02v-1h-2.02zm4.04 0h1.01v-1h-1.01zm1.01-36h-1.01v1h1.01zm-3.03 0h-2.02v1h2.02zm-4.04 0h-2.02v1h2.02zm-4.04 0h-2.03v1h2.03zm-4.05 0h-2.02v1h2.02zm-4.04 0h-2.02v1h2.02zm-4.04 0h-2.02v1h2.02zm-4.04 0h-2.02v1h2.02zm-4.04 0h-2.02v1h2.02zm-4.04 0h-2.03v1h2.03zm-4.05 0h-2.02v1h2.02zm-4.04 0h-2.02v1h2.02zm-4.04 0h-2.02v1h2.02zm-4.04 0h-2.02v1h2.02zm-4.04 0h-2.02v1h2.02zm-4.04 0h-2.03v1h2.03zm-4.05 0h-2.02v1h2.02zm-4.038 0h-2.021v1h2.021zm-4.042 0h-2.02v1h2.02zm-4.041 0h-2.021v1h2.021zm-4.042 0h-2.021v1h2.021zm-4.042 0h-2.02v1h2.02zm-4.041 0h-2.021v1h2.021zm-4.042 0h-2.021v1h2.021zm-4.042 0h-1.01v1h1.01z" fill="#000"/><path d="m974.738 3.92275-.238-.73177-.238.73177-.28.86372h-.909-.769l.622.45226.735.53381-.28.86373-.238.73176.622-.45225.735-.53381.735.53381.622.45225-.238-.73176-.28-.86373.735-.53381.622-.45226h-.769-.909z" fill="#45ffca" stroke="#000" stroke-width=".5"/><path d="m1039.74 8.92275-.24-.73177-.24.73177-.28.86372h-.91-.77l.63.45223.73.5338-.28.8638-.24.7317.63-.4522.73-.5338.73.5338.63.4522-.24-.7317-.28-.8638.73-.5338.63-.45223h-.77-.91z" fill="#45ffca" stroke="#000" stroke-width=".5"/><path d="m1046.74 25.9227-.24-.7317-.24.7317-.28.8638h-.91-.77l.63.4522.73.5338-.28.8638-.24.7317.63-.4522.73-.5338.73.5338.63.4522-.24-.7317-.28-.8638.73-.5338.63-.4522h-.77-.91z" fill="#45ffca" stroke="#000" stroke-width=".5"/><path d="m1059.74 6.92275-.24-.73177-.24.73177-.28.86372h-.91-.77l.63.45226.73.53381-.28.86373-.24.73173.63-.45222.73-.53381.73.53381.63.45222-.24-.73173-.28-.86373.73-.53381.63-.45226h-.77-.91z" fill="#45ffca" stroke="#000" stroke-width=".5"/><path d="m1023.74 28.9227-.24-.7317-.24.7317-.28.8638h-.91-.77l.63.4522.73.5338-.28.8638-.24.7317.63-.4522.73-.5338.73.5338.63.4522-.24-.7317-.28-.8638.73-.5338.63-.4522h-.77-.91z" fill="#45ffca" stroke="#000" stroke-width=".5"/><path d="m1013.74 5.92275-.24-.73177-.24.73177-.28.86372h-.91-.77l.63.45226.73.53381-.28.86373-.24.73176.63-.45225.73-.53381.73.53381.63.45225-.24-.73176-.28-.86373.73-.53381.63-.45226h-.77-.91z" fill="#45ffca" stroke="#000" stroke-width=".5"/><path d="m999.738 26.9227-.238-.7317-.238.7317-.28.8638h-.909-.769l.622.4522.735.5338-.28.8638-.238.7317.622-.4522.735-.5338.73.5338.63.4522-.24-.7317-.28-.8638.73-.5338.63-.4522h-.77-.91z" fill="#45ffca" stroke="#000" stroke-width=".5"/><path d="m988.738 8.92275-.238-.73177-.238.73177-.28.86372h-.909-.769l.622.45223.735.5338-.28.8638-.238.7317.622-.4522.735-.5338.735.5338.622.4522-.238-.7317-.28-.8638.735-.5338.622-.45223h-.769-.909z" fill="#45ffca" stroke="#000" stroke-width=".5"/><path d="m974.738 29.9227-.238-.7317-.238.7317-.28.8638h-.909-.769l.622.4522.735.5338-.28.8638-.238.7317.622-.4522.735-.5338.735.5338.622.4522-.238-.7317-.28-.8638.735-.5338.622-.4522h-.769-.909z" fill="#45ffca" stroke="#000" stroke-width=".5"/><path d="m979.026 17.218h-2.548v5.782h-1.358v-7h1.022l.336.574.994-.574h1.554zm7.065 4.564v1.218h-3.906l-1.624-.938v-5.194l1.624-.938h2.282l1.624.938v3.108h-4.172v1.806zm-4.172-4.634v1.61h2.814v-1.61zm10.874 5.922h-2.114l-.994-.574v3.304h-1.358v-9.87h1.022l.336.574.994-.574h2.114l1.624.938v5.264zm-3.108-5.922v4.704h3.374v-4.704zm12.495 4.634v1.218h-3.903l-1.624-.938v-5.194l1.624-.938h2.283l1.62.938v3.108h-4.169v1.806zm-4.169-4.634v1.61h2.819v-1.61zm7.489 2.982v1.722h2.81v-1.722zm.26 2.94-1.62-.938v-2.282l1.62-.938h2.55v-1.694h-3.47v-1.218h3.2l1.63.938v6.132h-.37l-.99-.574-.99.574zm5.59-5.852v-1.218h1.29v-1.176l1.36-.784v1.96h1.68v1.218h-1.68v4.564h1.68v1.218h-1.42l-1.62-.938v-4.844zm11.82 4.564v1.218h-3.91l-1.62-.938v-5.194l1.62-.938h2.29l1.62.938v3.108h-4.17v1.806zm-4.17-4.634v1.61h2.81v-1.61zm8.03-1.218h2.11l1 .574v-3.724h1.36v10.29h-1.03l-.33-.574-1 .574h-2.11l-1.62-.938v-5.264zm3.11 5.922v-4.704h-3.38v4.704zm6.67-4.634v-1.218h1.29v-1.176l1.35-.784v1.96h1.68v1.218h-1.68v4.564h1.68v1.218h-1.41l-1.62-.938v-4.844zm11.82 4.564v1.218h-3.91l-1.62-.938v-5.194l1.62-.938h2.28l1.63.938v3.108h-4.18v1.806zm-4.18-4.634v1.61h2.82v-1.61zm5.57 5.852 2.51-3.57-2.42-3.43h1.51l1.62 2.408 1.63-2.408h1.51l-2.44 3.43 2.52 3.57h-1.47l-1.75-2.562-1.75 2.562zm7.28-5.782v-1.218h1.29v-1.176l1.36-.784v1.96h1.68v1.218h-1.68v4.564h1.68v1.218h-1.42l-1.62-.938v-4.844z" fill="#000"/><path d="m1061.74 27.9227-.24-.7317-.24.7317-.28.8638h-.91-.77l.63.4522.73.5338-.28.8638-.24.7317.63-.4522.73-.5338.73.5338.63.4522-.24-.7317-.28-.8638.73-.5338.63-.4522h-.77-.91z" fill="#45ffca" stroke="#000" stroke-width=".5"/><path d="m1066.5 3v31h1v-31zm-96 31v-31h-1v31z" fill="#000" mask="url(#j)"/><path d="m1067 1h97v35h-97z" fill="#ffa732" fill-opacity=".89"/><path d="m1067 36.5h1.01v-1h-1.01zm3.03 0h2.02v-1h-2.02zm4.04 0h2.02v-1h-2.02zm4.04 0h2.03v-1h-2.03zm4.05 0h2.02v-1h-2.02zm4.04 0h2.02v-1h-2.02zm4.04 0h2.02v-1h-2.02zm4.04 0h2.02v-1h-2.02zm4.04 0h2.02v-1h-2.02zm4.04 0h2.03v-1h-2.03zm4.05 0h2.02v-1h-2.02zm4.04 0h2.02v-1h-2.02zm4.04 0h2.02v-1h-2.02zm4.04 0h2.02v-1h-2.02zm4.04 0h2.02v-1h-2.02zm4.04 0h2.03v-1h-2.03zm4.05 0h2.02v-1h-2.02zm4.04 0h2.02v-1h-2.02zm4.04 0h2.02v-1h-2.02zm4.04 0h2.02v-1h-2.02zm4.04 0h2.02v-1h-2.02zm4.04 0h2.03v-1h-2.03zm4.05 0h2.02v-1h-2.02zm4.04 0h2.02v-1h-2.02zm4.04 0h1.01v-1h-1.01zm1.01-36h-1.01v1h1.01zm-3.03 0h-2.02v1h2.02zm-4.04 0h-2.02v1h2.02zm-4.04 0h-2.03v1h2.03zm-4.05 0h-2.02v1h2.02zm-4.04 0h-2.02v1h2.02zm-4.04 0h-2.02v1h2.02zm-4.04 0h-2.02v1h2.02zm-4.04 0h-2.02v1h2.02zm-4.04 0h-2.03v1h2.03zm-4.05 0h-2.02v1h2.02zm-4.04 0h-2.02v1h2.02zm-4.04 0h-2.02v1h2.02zm-4.04 0h-2.02v1h2.02zm-4.04 0h-2.02v1h2.02zm-4.04 0h-2.03v1h2.03zm-4.05 0h-2.02v1h2.02zm-4.04 0h-2.02v1h2.02zm-4.04 0h-2.02v1h2.02zm-4.04 0h-2.02v1h2.02zm-4.04 0h-2.02v1h2.02zm-4.04 0h-2.03v1h2.03zm-4.05 0h-2.02v1h2.02zm-4.04 0h-2.02v1h2.02zm-4.04 0h-1.01v1h1.01z" fill="#000"/><path d="m1071.74 3.92275-.24-.73177-.24.73177-.28.86372h-.91-.77l.63.45226.73.53381-.28.86373-.24.73176.63-.45225.73-.53381.73.53381.63.45225-.24-.73176-.28-.86373.73-.53381.63-.45226h-.77-.91z" fill="#45ffca" stroke="#000" stroke-width=".5"/><path d="m1136.74 8.92275-.24-.73177-.24.73177-.28.86372h-.91-.77l.63.45223.73.5338-.28.8638-.24.7317.63-.4522.73-.5338.73.5338.63.4522-.24-.7317-.28-.8638.73-.5338.63-.45223h-.77-.91z" fill="#45ffca" stroke="#000" stroke-width=".5"/><path d="m1143.74 25.9227-.24-.7317-.24.7317-.28.8638h-.91-.77l.63.4522.73.5338-.28.8638-.24.7317.63-.4522.73-.5338.73.5338.63.4522-.24-.7317-.28-.8638.73-.5338.63-.4522h-.77-.91z" fill="#45ffca" stroke="#000" stroke-width=".5"/><path d="m1156.74 6.92275-.24-.73177-.24.73177-.28.86372h-.91-.77l.63.45226.73.53381-.28.86373-.24.73173.63-.45222.73-.53381.73.53381.63.45222-.24-.73173-.28-.86373.73-.53381.63-.45226h-.77-.91z" fill="#45ffca" stroke="#000" stroke-width=".5"/><path d="m1120.74 28.9227-.24-.7317-.24.7317-.28.8638h-.91-.77l.63.4522.73.5338-.28.8638-.24.7317.63-.4522.73-.5338.73.5338.63.4522-.24-.7317-.28-.8638.73-.5338.63-.4522h-.77-.91z" fill="#45ffca" stroke="#000" stroke-width=".5"/><path d="m1110.74 5.92275-.24-.73177-.24.73177-.28.86372h-.91-.77l.63.45226.73.53381-.28.86373-.24.73176.63-.45225.73-.53381.73.53381.63.45225-.24-.73176-.28-.86373.73-.53381.63-.45226h-.77-.91z" fill="#45ffca" stroke="#000" stroke-width=".5"/><path d="m1096.74 26.9227-.24-.7317-.24.7317-.28.8638h-.91-.77l.63.4522.73.5338-.28.8638-.24.7317.63-.4522.73-.5338.73.5338.63.4522-.24-.7317-.28-.8638.73-.5338.63-.4522h-.77-.91z" fill="#45ffca" stroke="#000" stroke-width=".5"/><path d="m1085.74 8.92275-.24-.73177-.24.73177-.28.86372h-.91-.77l.63.45223.73.5338-.28.8638-.24.7317.63-.4522.73-.5338.73.5338.63.4522-.24-.7317-.28-.8638.73-.5338.63-.45223h-.77-.91z" fill="#45ffca" stroke="#000" stroke-width=".5"/><path d="m1071.74 29.9227-.24-.7317-.24.7317-.28.8638h-.91-.77l.63.4522.73.5338-.28.8638-.24.7317.63-.4522.73-.5338.73.5338.63.4522-.24-.7317-.28-.8638.73-.5338.63-.4522h-.77-.91z" fill="#45ffca" stroke="#000" stroke-width=".5"/><path d="m1076.03 17.218h-2.55v5.782h-1.36v-7h1.02l.34.574.99-.574h1.56zm7.06 4.564v1.218h-3.9l-1.63-.938v-5.194l1.63-.938h2.28l1.62.938v3.108h-4.17v1.806zm-4.17-4.634v1.61h2.81v-1.61zm10.87 5.922h-2.11l-.99-.574v3.304h-1.36v-9.87h1.02l.34.574.99-.574h2.11l1.63.938v5.264zm-3.1-5.922v4.704h3.37v-4.704zm12.49 4.634v1.218h-3.9l-1.63-.938v-5.194l1.63-.938h2.28l1.62.938v3.108h-4.17v1.806zm-4.17-4.634v1.61h2.82v-1.61zm7.49 2.982v1.722h2.81v-1.722zm.26 2.94-1.62-.938v-2.282l1.62-.938h2.55v-1.694h-3.47v-1.218h3.2l1.63.938v6.132h-.37l-.99-.574-.99.574zm5.59-5.852v-1.218h1.29v-1.176l1.36-.784v1.96h1.68v1.218h-1.68v4.564h1.68v1.218h-1.42l-1.62-.938v-4.844zm11.82 4.564v1.218h-3.91l-1.62-.938v-5.194l1.62-.938h2.29l1.62.938v3.108h-4.17v1.806zm-4.17-4.634v1.61h2.81v-1.61zm8.03-1.218h2.11l1 .574v-3.724h1.36v10.29h-1.03l-.33-.574-1 .574h-2.11l-1.62-.938v-5.264zm3.11 5.922v-4.704h-3.38v4.704zm6.67-4.634v-1.218h1.29v-1.176l1.35-.784v1.96h1.68v1.218h-1.68v4.564h1.68v1.218h-1.41l-1.62-.938v-4.844zm11.82 4.564v1.218h-3.91l-1.62-.938v-5.194l1.62-.938h2.28l1.63.938v3.108h-4.18v1.806zm-4.18-4.634v1.61h2.82v-1.61zm5.57 5.852 2.51-3.57-2.42-3.43h1.51l1.62 2.408 1.63-2.408h1.51l-2.44 3.43 2.52 3.57h-1.47l-1.75-2.562-1.75 2.562zm7.28-5.782v-1.218h1.29v-1.176l1.36-.784v1.96h1.68v1.218h-1.68v4.564h1.68v1.218h-1.42l-1.62-.938v-4.844z" fill="#000"/><path d="m1158.74 27.9227-.24-.7317-.24.7317-.28.8638h-.91-.77l.63.4522.73.5338-.28.8638-.24.7317.63-.4522.73-.5338.73.5338.63.4522-.24-.7317-.28-.8638.73-.5338.63-.4522h-.77-.91z" fill="#45ffca" stroke="#000" stroke-width=".5"/><path d="m1163.5 3v31h1v-31zm-96 31v-31h-1v31z" fill="#000" mask="url(#k)"/><path d="m0 1h97v35h-97z" fill="#ffa732" fill-opacity=".89"/><path d="m0 36.5h1.01042v-1h-1.01042zm3.03125 0h2.02083v-1h-2.02083zm4.04167 0h2.02083v-1h-2.02083zm4.04168 0h2.0208v-1h-2.0208zm4.0416 0h2.0209v-1h-2.0209zm4.0417 0h2.0209v-1h-2.0209zm4.0417 0h2.0208v-1h-2.0208zm4.0417 0h2.0208v-1h-2.0208zm4.0416 0h2.0209v-1h-2.0209zm4.0417 0h2.0208v-1h-2.0208zm4.0416 0h2.0209v-1h-2.0209zm4.0417 0h2.0208v-1h-2.0208zm4.0417 0h2.0208v-1h-2.0208zm4.0416 0h2.0209v-1h-2.0209zm4.0417 0h2.0208v-1h-2.0208zm4.0417 0h2.0208v-1h-2.0208zm4.0416 0h2.0209v-1h-2.0209zm4.0417 0h2.0208v-1h-2.0208zm4.0417 0h2.0208v-1h-2.0208zm4.0416 0h2.0209v-1h-2.0209zm4.0417 0h2.0209v-1h-2.0209zm4.0417 0h2.0208v-1h-2.0208zm4.0417 0h2.0208v-1h-2.0208zm4.0416 0h2.0209v-1h-2.0209zm4.0417 0h1.0104v-1h-1.0104zm1.0104-36h-1.0104v1h1.0104zm-3.0312 0h-2.0209v1h2.0209zm-4.0417 0h-2.0208v1h2.0208zm-4.0417 0h-2.0208v1h2.0208zm-4.0416 0h-2.0209v1h2.0209zm-4.0417 0h-2.0209v1h2.0209zm-4.0417 0h-2.0208v1h2.0208zm-4.0417 0h-2.0208v1h2.0208zm-4.0416 0h-2.0209v1h2.0209zm-4.0417 0h-2.0208v1h2.0208zm-4.0416 0h-2.0209v1h2.0209zm-4.0417 0h-2.0208v1h2.0208zm-4.0417 0h-2.0208v1h2.0208zm-4.0416 0h-2.0209v1h2.0209zm-4.0417 0h-2.0208v1h2.0208zm-4.0417 0h-2.0208v1h2.0208zm-4.0416 0h-2.0209v1h2.0209zm-4.0417 0h-2.0208v1h2.0208zm-4.0417 0h-2.0208v1h2.0208zm-4.0416 0h-2.0209v1h2.0209zm-4.0417 0h-2.0209v1h2.0209zm-4.0417 0h-2.0208v1h2.0208zm-4.04167 0h-2.02083v1h2.02083zm-4.04167 0h-2.02083v1h2.02083zm-4.04167 0h-1.01039v1h1.01039z" fill="#000"/><path d="m4.73776 3.92275-.23776-.73177-.23776.73177-.28065.86372h-.90817-.76943l.62248.45226.73473.53381-.28064.86373-.23777.73176.62248-.45225.73473-.53381.73473.53381.62248.45225-.23777-.73176-.28064-.86373.73473-.53381.62248-.45226h-.76943-.90817z" fill="#45ffca" stroke="#000" stroke-width=".5"/><path d="m69.7378 8.92275-.2378-.73177-.2378.73177-.2806.86372h-.9082-.7694l.6225.45223.7347.5338-.2806.8638-.2378.7317.6225-.4522.7347-.5338.7347.5338.6225.4522-.2378-.7317-.2806-.8638.7347-.5338.6225-.45223h-.7694-.9082z" fill="#45ffca" stroke="#000" stroke-width=".5"/><path d="m76.7378 25.9227-.2378-.7317-.2378.7317-.2806.8638h-.9082-.7694l.6225.4522.7347.5338-.2806.8638-.2378.7317.6225-.4522.7347-.5338.7347.5338.6225.4522-.2378-.7317-.2806-.8638.7347-.5338.6225-.4522h-.7694-.9082z" fill="#45ffca" stroke="#000" stroke-width=".5"/><path d="m89.7378 6.92275-.2378-.73177-.2378.73177-.2806.86372h-.9082-.7694l.6225.45226.7347.53381-.2806.86373-.2378.73173.6225-.45222.7347-.53381.7347.53381.6225.45222-.2378-.73173-.2806-.86373.7347-.53381.6225-.45226h-.7694-.9082z" fill="#45ffca" stroke="#000" stroke-width=".5"/><path d="m53.7378 28.9227-.2378-.7317-.2378.7317-.2806.8638h-.9082-.7694l.6225.4522.7347.5338-.2806.8638-.2378.7317.6225-.4522.7347-.5338.7347.5338.6225.4522-.2378-.7317-.2806-.8638.7347-.5338.6225-.4522h-.7694-.9082z" fill="#45ffca" stroke="#000" stroke-width=".5"/><path d="m43.7378 5.92275-.2378-.73177-.2378.73177-.2806.86372h-.9082-.7694l.6225.45226.7347.53381-.2806.86373-.2378.73176.6225-.45225.7347-.53381.7347.53381.6225.45225-.2378-.73176-.2806-.86373.7347-.53381.6225-.45226h-.7694-.9082z" fill="#45ffca" stroke="#000" stroke-width=".5"/><path d="m29.7378 26.9227-.2378-.7317-.2378.7317-.2806.8638h-.9082-.7694l.6225.4522.7347.5338-.2806.8638-.2378.7317.6225-.4522.7347-.5338.7347.5338.6225.4522-.2378-.7317-.2806-.8638.7347-.5338.6225-.4522h-.7694-.9082z" fill="#45ffca" stroke="#000" stroke-width=".5"/><path d="m18.7378 8.92275-.2378-.73177-.2378.73177-.2806.86372h-.9082-.7694l.6225.45223.7347.5338-.2806.8638-.2378.7317.6225-.4522.7347-.5338.7347.5338.6225.4522-.2378-.7317-.2806-.8638.7347-.5338.6225-.45223h-.7694-.9082z" fill="#45ffca" stroke="#000" stroke-width=".5"/><path d="m4.73776 29.9227-.23776-.7317-.23776.7317-.28065.8638h-.90817-.76943l.62248.4522.73473.5338-.28064.8638-.23777.7317.62248-.4522.73473-.5338.73473.5338.62248.4522-.23777-.7317-.28064-.8638.73473-.5338.62248-.4522h-.76943-.90817z" fill="#45ffca" stroke="#000" stroke-width=".5"/><path d="m9.026 17.218h-2.548v5.782h-1.358v-7h1.022l.336.574.994-.574h1.554zm7.0654 4.564v1.218h-3.906l-1.624-.938v-5.194l1.624-.938h2.282l1.624.938v3.108h-4.172v1.806zm-4.172-4.634v1.61h2.814v-1.61zm10.8736 5.922h-2.114l-.994-.574v3.304h-1.358v-9.87h1.022l.336.574.994-.574h2.114l1.624.938v5.264zm-3.108-5.922v4.704h3.374v-4.704zm12.4982 4.634v1.218h-3.906l-1.624-.938v-5.194l1.624-.938h2.282l1.624.938v3.108h-4.172v1.806zm-4.172-4.634v1.61h2.814v-1.61zm7.4856 2.982v1.722h2.814v-1.722zm.266 2.94-1.624-.938v-2.282l1.624-.938h2.548v-1.694h-3.472v-1.218h3.206l1.624.938v6.132h-.364l-.994-.574-.994.574zm5.5882-5.852v-1.218h1.288v-1.176l1.358-.784v1.96h1.68v1.218h-1.68v4.564h1.68v1.218h-1.414l-1.624-.938v-4.844zm11.8185 4.564v1.218h-3.906l-1.624-.938v-5.194l1.624-.938h2.282l1.624.938v3.108h-4.172v1.806zm-4.172-4.634v1.61h2.814v-1.61zm8.0317-1.218h2.114l.994.574v-3.724h1.358v10.29h-1.022l-.336-.574-.994.574h-2.114l-1.624-.938v-5.264zm3.108 5.922v-4.704h-3.374v4.704zm6.6708-4.634v-1.218h1.288v-1.176l1.358-.784v1.96h1.68v1.218h-1.68v4.564h1.68v1.218h-1.414l-1.624-.938v-4.844zm11.8186 4.564v1.218h-3.906l-1.624-.938v-5.194l1.624-.938h2.282l1.624.938v3.108h-4.172v1.806zm-4.172-4.634v1.61h2.814v-1.61zm5.5676 5.852 2.506-3.57-2.422-3.43h1.512l1.624 2.408 1.624-2.408h1.512l-2.436 3.43 2.52 3.57h-1.47l-1.75-2.562-1.75 2.562zm7.28-5.782v-1.218h1.288v-1.176l1.358-.784v1.96h1.68v1.218h-1.68v4.564h1.68v1.218h-1.414l-1.624-.938v-4.844z" fill="#000"/><path d="m91.7378 27.9227-.2378-.7317-.2378.7317-.2806.8638h-.9082-.7694l.6225.4522.7347.5338-.2806.8638-.2378.7317.6225-.4522.7347-.5338.7347.5338.6225.4522-.2378-.7317-.2806-.8638.7347-.5338.6225-.4522h-.7694-.9082z" fill="#45ffca" stroke="#000" stroke-width=".5"/><path d="m96.5 3v31h1v-31zm-96 31v-31h-1v31z" fill="#000" mask="url(#l)"/></svg>